<?xml version="1.0" encoding="UTF-8" standalone="no"?>
<!-- Created with Inkscape (http://www.inkscape.org/) -->

<svg
   width="25"
   height="25"
   viewBox="0 0 6.6145859 6.614625"
   version="1.1"
   id="svg3983"
   inkscape:version="1.2.2 (b0a8486541, 2022-12-01)"
   sodipodi:docname="Battery_Glyphes.svg"
   xmlns:inkscape="http://www.inkscape.org/namespaces/inkscape"
   xmlns:sodipodi="http://sodipodi.sourceforge.net/DTD/sodipodi-0.dtd"
   xmlns="http://www.w3.org/2000/svg"
   xmlns:svg="http://www.w3.org/2000/svg">
  <sodipodi:namedview
     id="namedview3985"
     pagecolor="#505050"
     bordercolor="#eeeeee"
     borderopacity="1"
     inkscape:showpageshadow="0"
     inkscape:pageopacity="0"
     inkscape:pagecheckerboard="0"
     inkscape:deskcolor="#d1d1d1"
     inkscape:document-units="mm"
     showgrid="false"
     inkscape:zoom="32"
     inkscape:cx="17.046875"
     inkscape:cy="13.84375"
     inkscape:window-width="2560"
     inkscape:window-height="1367"
     inkscape:window-x="2560"
     inkscape:window-y="36"
     inkscape:window-maximized="1"
     inkscape:current-layer="layer12" />
  <defs
     id="defs3980" />
  <g
     inkscape:groupmode="layer"
     id="layer23"
     inkscape:label="_charging_100"
     style="display:inline">
    <g
       id="g185143"
       transform="matrix(0.39685516,0,0,-0.39685516,-7.8044928,100.13997)"
       inkscape:label="_charging_100"
       style="display:inline">
      <title
         id="title185135">battery-level-100-charged</title>
      <path
         id="path185137"
         style="fill:#ffffff;fill-opacity:1"
         d="m 19.9992,245 c 0,1 1,1 1,1 h 1 v 1 c 0,0 -0.0137,0.7086 0.35547,1.44727 C 22.72385,249.18593 23.6656,250 24.9992,250 h 8 c 0,0 0.70891,0.0138 1.44727,-0.35547 C 35.18482,249.27521 35.9992,248.3332 35.9992,247 v -5 h -2 v 5 c 0,0.554 -0.446,1 -1,1 h -8 c -0.554,0 -1,-0.446 -1,-1 v -4 -2 c 0,-0.554 0.446,-1 1,-1 h 2 v -2 h -2 c -1.3336,0 -2.27535,0.81407 -2.64453,1.55273 C 21.98548,240.2914 21.9992,241 21.9992,241 v 1 h -1 c -1,0 -1,1 -1,1 z m 5,2 h 8 v -3 h -1 c -0.52989,-1.8e-4 -1.0395,-0.21131 -1.41406,-0.58594 L 28.17108,241 H 24.9992 Z" />
      <rect
         y="236"
         x="20"
         height="16"
         width="16"
         id="rect185139"
         style="fill:none" />
      <path
         id="path187582"
         style="opacity:1;fill:#ffffff;fill-opacity:1;stroke:none"
         d="m 27.9992,239 h 0.006 c -0.002,0.26436 0.10172,0.51856 0.28711,0.70703 l 3,3 c 0.18748,0.1875 0.44174,0.29288 0.70689,0.29297 h 1 v -1 -1 -1.13086 l 1.44531,0.96289 c 0.16492,0.10744 0.35787,0.16383 0.55469,0.16211 V 241 h 1 v -1 h -0.004 c 9.9e-4,-0.26464 -0.10296,-0.51888 -0.28906,-0.70703 l -3,-3 c -0.18813,-0.18608 -0.44233,-0.29002 -0.70694,-0.28906 V 236 h -1 v 1 1 1.13086 l -1.44531,-0.96289 c -0.16448,-0.10882 -0.35747,-0.16658 -0.55469,-0.16602 V 238 h -1 z" />
    </g>
  </g>
  <g
     inkscape:groupmode="layer"
     id="layer22"
     inkscape:label="_charging_90"
     style="display:inline">
    <g
       id="g179994"
       transform="matrix(0.39685516,0,0,-0.39685516,-7.8044928,100.13997)"
       inkscape:label="_charging_90"
       style="display:inline">
      <title
         id="title179988">battery-level-90-charging</title>
      <path
         id="path183064"
         style="fill:#33d17a;fill-opacity:1"
         d="m 25.9992,247 h 7 v -3 h -1 c -0.52989,-1.8e-4 -1.0395,-0.21131 -1.41406,-0.58594 L 28.17108,241 H 25.9992 Z"
         class="success" />
      <rect
         y="236"
         x="20"
         height="16"
         width="16"
         id="rect179992"
         style="fill:none" />
      <path
         id="path181750"
         style="fill:#ffffff;fill-opacity:1"
         d="m 19.9992,245 c 0,1 1,1 1,1 h 1 v 1 c 0,0 -0.0137,0.7086 0.35547,1.44727 C 22.72385,249.18593 23.6656,250 24.9992,250 h 8 c 0,0 0.70891,0.0138 1.44727,-0.35547 C 35.18482,249.27521 35.9992,248.3332 35.9992,247 v -5 h -2 v 5 c 0,0.554 -0.446,1 -1,1 h -8 c -0.554,0 -1,-0.446 -1,-1 v -4 -2 c 0,-0.554 0.446,-1 1,-1 h 2 v -2 h -2 c -1.3336,0 -2.27535,0.81407 -2.64453,1.55273 C 21.98548,240.2914 21.9992,241 21.9992,241 v 1 h -1 c -1,0 -1,1 -1,1 z m 8,-6 h 0.0059 a 1.0001,1.0001 0 0 0 0.28711,0.70703 l 3,3 A 1.0001,1.0001 0 0 0 31.9992,243 h 1 v -1 -1 -1.13086 l 1.44531,0.96289 a 1.0001,1.0001 0 0 0 0.55469,0.16211 V 241 h 1 v -1 h -0.0039 a 1.0001,1.0001 0 0 0 -0.28906,-0.70703 l -3,-3 A 1.0001,1.0001 0 0 0 31.9992,236.00391 V 236 h -1 v 1 1 1.13086 l -1.44531,-0.96289 A 1.0001,1.0001 0 0 0 28.9992,238.00195 V 238 h -1 z" />
    </g>
  </g>
  <g
     inkscape:groupmode="layer"
     id="layer21"
     inkscape:label="_charging_80"
     style="display:inline">
    <g
       id="g183362"
       transform="matrix(0.39685516,0,0,-0.39685516,-7.8044928,100.13997)"
       inkscape:label="_charging_80"
       style="display:inline">
      <title
         id="title183354">battery-level-80-charging</title>
      <path
         id="path183356"
         style="fill:#33d17a;fill-opacity:1"
         d="m 26.9992,247 h 6 v -3 h -1 c -0.52989,-1.8e-4 -1.0395,-0.21131 -1.41406,-0.58594 L 28.17108,241 H 26.9992 Z"
         class="success" />
      <rect
         y="236"
         x="20"
         height="16"
         width="16"
         id="rect183358"
         style="fill:none" />
      <path
         id="path183360"
         style="fill:#ffffff;fill-opacity:1"
         d="m 19.9992,245 c 0,1 1,1 1,1 h 1 v 1 c 0,0 -0.0137,0.7086 0.35547,1.44727 C 22.72385,249.18593 23.6656,250 24.9992,250 h 8 c 0,0 0.70891,0.0138 1.44727,-0.35547 C 35.18482,249.27521 35.9992,248.3332 35.9992,247 v -5 h -2 v 5 c 0,0.554 -0.446,1 -1,1 h -8 c -0.554,0 -1,-0.446 -1,-1 v -4 -2 c 0,-0.554 0.446,-1 1,-1 h 2 v -2 h -2 c -1.3336,0 -2.27535,0.81407 -2.64453,1.55273 C 21.98548,240.2914 21.9992,241 21.9992,241 v 1 h -1 c -1,0 -1,1 -1,1 z m 8,-6 h 0.006 a 1.0001,1.0001 0 0 0 0.28711,0.70703 l 3,3 A 1.0001,1.0001 0 0 0 31.9992,243 h 1 v -1 -1 -1.13086 l 1.44531,0.96289 a 1.0001,1.0001 0 0 0 0.55469,0.16211 V 241 h 1 v -1 h -0.004 a 1.0001,1.0001 0 0 0 -0.28906,-0.70703 l -3,-3 A 1.0001,1.0001 0 0 0 31.9992,236.00391 V 236 h -1 v 1 1 1.13086 l -1.44531,-0.96289 A 1.0001,1.0001 0 0 0 28.9992,238.00195 V 238 h -1 z" />
    </g>
  </g>
  <g
     inkscape:groupmode="layer"
     id="layer20"
     inkscape:label="_charging_70"
     style="display:inline">
    <g
       id="g183627"
       transform="matrix(0.39685516,0,0,-0.39685516,-7.8044928,100.13997)"
       inkscape:label="_charging_70"
       style="display:inline">
      <title
         id="title183619">battery-level-70-charging</title>
      <path
         id="path183621"
         style="fill:#33d17a;fill-opacity:1"
         d="m 27.9992,247 h 5 v -3 h -1 c -0.52989,-1.8e-4 -1.0395,-0.21131 -1.41406,-0.58594 L 28.17108,241 H 27.9992 Z"
         class="success" />
      <rect
         y="236"
         x="20"
         height="16"
         width="16"
         id="rect183623"
         style="fill:none" />
      <path
         id="path183625"
         style="fill:#ffffff;fill-opacity:1"
         d="m 19.9992,245 c 0,1 1,1 1,1 h 1 v 1 c 0,0 -0.0137,0.7086 0.35547,1.44727 C 22.72385,249.18593 23.6656,250 24.9992,250 h 8 c 0,0 0.70891,0.0138 1.44727,-0.35547 C 35.18482,249.27521 35.9992,248.3332 35.9992,247 v -5 h -2 v 5 c 0,0.554 -0.446,1 -1,1 h -8 c -0.554,0 -1,-0.446 -1,-1 v -4 -2 c 0,-0.554 0.446,-1 1,-1 h 2 v -2 h -2 c -1.3336,0 -2.27535,0.81407 -2.64453,1.55273 C 21.98548,240.2914 21.9992,241 21.9992,241 v 1 h -1 c -1,0 -1,1 -1,1 z m 8,-6 h 0.006 a 1.0001,1.0001 0 0 0 0.28711,0.70703 l 3,3 A 1.0001,1.0001 0 0 0 31.9992,243 h 1 v -1 -1 -1.13086 l 1.44531,0.96289 a 1.0001,1.0001 0 0 0 0.55469,0.16211 V 241 h 1 v -1 h -0.004 a 1.0001,1.0001 0 0 0 -0.28906,-0.70703 l -3,-3 A 1.0001,1.0001 0 0 0 31.9992,236.00391 V 236 h -1 v 1 1 1.13086 l -1.44531,-0.96289 A 1.0001,1.0001 0 0 0 28.9992,238.00195 V 238 h -1 z" />
    </g>
  </g>
  <g
     inkscape:groupmode="layer"
     id="layer19"
     inkscape:label="_charging_60"
     style="display:inline">
    <g
       id="g183892"
       transform="matrix(0.39685516,0,0,-0.39685516,-7.8044928,100.13997)"
       inkscape:label="_charging_60"
       style="display:inline">
      <title
         id="title183884">battery-level-60-charging</title>
      <path
         id="path183886"
         style="fill:#33d17a;fill-opacity:1"
         d="m 28.9992,247 h 4 v -3 h -1 c -0.52989,-1.8e-4 -1.0395,-0.21131 -1.41406,-0.58594 l -1.58594,-1.58594 z"
         class="success" />
      <rect
         y="236"
         x="20"
         height="16"
         width="16"
         id="rect183888"
         style="fill:none" />
      <path
         id="path183890"
         style="fill:#ffffff;fill-opacity:1"
         d="m 19.9992,245 c 0,1 1,1 1,1 h 1 v 1 c 0,0 -0.0137,0.7086 0.35547,1.44727 C 22.72385,249.18593 23.6656,250 24.9992,250 h 8 c 0,0 0.70891,0.0138 1.44727,-0.35547 C 35.18482,249.27521 35.9992,248.3332 35.9992,247 v -5 h -2 v 5 c 0,0.554 -0.446,1 -1,1 h -8 c -0.554,0 -1,-0.446 -1,-1 v -4 -2 c 0,-0.554 0.446,-1 1,-1 h 2 v -2 h -2 c -1.3336,0 -2.27535,0.81407 -2.64453,1.55273 C 21.98548,240.2914 21.9992,241 21.9992,241 v 1 h -1 c -1,0 -1,1 -1,1 z m 8,-6 h 0.006 a 1.0001,1.0001 0 0 0 0.28711,0.70703 l 3,3 A 1.0001,1.0001 0 0 0 31.9992,243 h 1 v -1 -1 -1.13086 l 1.44531,0.96289 a 1.0001,1.0001 0 0 0 0.55469,0.16211 V 241 h 1 v -1 h -0.004 a 1.0001,1.0001 0 0 0 -0.28906,-0.70703 l -3,-3 A 1.0001,1.0001 0 0 0 31.9992,236.00391 V 236 h -1 v 1 1 1.13086 l -1.44531,-0.96289 A 1.0001,1.0001 0 0 0 28.9992,238.00195 V 238 h -1 z" />
    </g>
  </g>
  <g
     inkscape:groupmode="layer"
     id="layer18"
     inkscape:label="_charging_50"
     style="display:inline">
    <g
       id="g184087"
       transform="matrix(0.39685516,0,0,-0.39685516,-7.8044928,100.13997)"
       inkscape:label="_charging_50"
       style="display:inline">
      <title
         id="title184079">battery-level-50-charging</title>
      <path
         id="path184081"
         style="fill:#33d17a;fill-opacity:1"
         d="m 28.9992,247 h 4 v -3 h -1 c -0.52989,-1.8e-4 -1.0395,-0.21131 -1.41406,-0.58594 l -1.58594,-1.58594 z"
         class="success" />
      <rect
         y="236"
         x="20"
         height="16"
         width="16"
         id="rect184083"
         style="fill:none" />
      <path
         id="path184085"
         style="fill:#ffffff;fill-opacity:1"
         d="m 19.9992,245 c 0,1 1,1 1,1 h 1 v 1 c 0,0 -0.0137,0.7086 0.35547,1.44727 C 22.72385,249.18593 23.6656,250 24.9992,250 h 8 c 0,0 0.70891,0.0138 1.44727,-0.35547 C 35.18482,249.27521 35.9992,248.3332 35.9992,247 v -5 h -2 v 5 c 0,0.554 -0.446,1 -1,1 h -8 c -0.554,0 -1,-0.446 -1,-1 v -4 -2 c 0,-0.554 0.446,-1 1,-1 h 2 v -2 h -2 c -1.3336,0 -2.27535,0.81407 -2.64453,1.55273 C 21.98548,240.2914 21.9992,241 21.9992,241 v 1 h -1 c -1,0 -1,1 -1,1 z m 8,-6 h 0.006 a 1.0001,1.0001 0 0 0 0.28711,0.70703 l 3,3 A 1.0001,1.0001 0 0 0 31.9992,243 h 1 v -1 -1 -1.13086 l 1.44531,0.96289 a 1.0001,1.0001 0 0 0 0.55469,0.16211 V 241 h 1 v -1 h -0.004 a 1.0001,1.0001 0 0 0 -0.28906,-0.70703 l -3,-3 A 1.0001,1.0001 0 0 0 31.9992,236.00391 V 236 h -1 v 1 1 1.13086 l -1.44531,-0.96289 A 1.0001,1.0001 0 0 0 28.9992,238.00195 V 238 h -1 z" />
    </g>
  </g>
  <g
     inkscape:groupmode="layer"
     id="layer17"
     inkscape:label="_charging_40"
     style="display:inline">
    <g
       id="g184177"
       transform="matrix(0.39685516,0,0,-0.39685516,-7.8044928,100.13997)"
       inkscape:label="_charging_40"
       style="display:inline">
      <title
         id="title184169">battery-level-40-charging</title>
      <path
         id="path184171"
         style="fill:#33d17a;fill-opacity:1"
         d="m 29.9992,247 h 3 v -3 h -1 c -0.52989,-1.8e-4 -1.0395,-0.21131 -1.41406,-0.58594 l -0.58594,-0.58594 z"
         class="success" />
      <rect
         y="236"
         x="20"
         height="16"
         width="16"
         id="rect184173"
         style="fill:none" />
      <path
         id="path184175"
         style="fill:#ffffff;fill-opacity:1"
         d="m 19.9992,245 c 0,1 1,1 1,1 h 1 v 1 c 0,0 -0.0137,0.7086 0.35547,1.44727 C 22.72385,249.18593 23.6656,250 24.9992,250 h 8 c 0,0 0.70891,0.0138 1.44727,-0.35547 C 35.18482,249.27521 35.9992,248.3332 35.9992,247 v -5 h -2 v 5 c 0,0.554 -0.446,1 -1,1 h -8 c -0.554,0 -1,-0.446 -1,-1 v -4 -2 c 0,-0.554 0.446,-1 1,-1 h 2 v -2 h -2 c -1.3336,0 -2.27535,0.81407 -2.64453,1.55273 C 21.98548,240.2914 21.9992,241 21.9992,241 v 1 h -1 c -1,0 -1,1 -1,1 z m 8,-6 h 0.006 a 1.0001,1.0001 0 0 0 0.28711,0.70703 l 3,3 A 1.0001,1.0001 0 0 0 31.9992,243 h 1 v -1 -1 -1.13086 l 1.44531,0.96289 a 1.0001,1.0001 0 0 0 0.55469,0.16211 V 241 h 1 v -1 h -0.004 a 1.0001,1.0001 0 0 0 -0.28906,-0.70703 l -3,-3 A 1.0001,1.0001 0 0 0 31.9992,236.00391 V 236 h -1 v 1 1 1.13086 l -1.44531,-0.96289 A 1.0001,1.0001 0 0 0 28.9992,238.00195 V 238 h -1 z" />
    </g>
  </g>
  <g
     inkscape:groupmode="layer"
     id="layer16"
     inkscape:label="_charging_30"
     style="display:inline">
    <g
       id="g184391"
       transform="matrix(0.396875,0,0,-0.396875,-7.8050483,100.14481)"
       inkscape:label="_charging_30"
       style="display:inline">
      <title
         id="title184383">battery-level-30-charging</title>
      <path
         id="path184385"
         style="fill:#33d17a;fill-opacity:1"
         d="m 30.9992,247 h 2 v -3 h -1 c -0.35365,-1.2e-4 -0.69854,-0.0936 -1,-0.26758 z"
         class="success" />
      <rect
         y="236"
         x="20"
         height="16"
         width="16"
         id="rect184387"
         style="fill:none" />
      <path
         id="path184389"
         style="fill:#ffffff;fill-opacity:1"
         d="m 19.9992,245 c 0,1 1,1 1,1 h 1 v 1 c 0,0 -0.0137,0.7086 0.35547,1.44727 C 22.72385,249.18593 23.6656,250 24.9992,250 h 8 c 0,0 0.70891,0.0138 1.44727,-0.35547 C 35.18482,249.27521 35.9992,248.3332 35.9992,247 v -5 h -2 v 5 c 0,0.554 -0.446,1 -1,1 h -8 c -0.554,0 -1,-0.446 -1,-1 v -4 -2 c 0,-0.554 0.446,-1 1,-1 h 2 v -2 h -2 c -1.3336,0 -2.27535,0.81407 -2.64453,1.55273 C 21.98548,240.2914 21.9992,241 21.9992,241 v 1 h -1 c -1,0 -1,1 -1,1 z m 8,-6 h 0.006 a 1.0001,1.0001 0 0 0 0.28711,0.70703 l 3,3 A 1.0001,1.0001 0 0 0 31.9992,243 h 1 v -1 -1 -1.13086 l 1.44531,0.96289 a 1.0001,1.0001 0 0 0 0.55469,0.16211 V 241 h 1 v -1 h -0.004 a 1.0001,1.0001 0 0 0 -0.28906,-0.70703 l -3,-3 A 1.0001,1.0001 0 0 0 31.9992,236.00391 V 236 h -1 v 1 1 1.13086 l -1.44531,-0.96289 A 1.0001,1.0001 0 0 0 28.9992,238.00195 V 238 h -1 z" />
    </g>
  </g>
  <g
     inkscape:groupmode="layer"
     id="layer15"
     inkscape:label="_charging_20"
     style="display:inline">
    <g
       id="g184676"
       transform="matrix(0.396875,0,0,-0.396875,-7.8050483,100.14481)"
       inkscape:label="_charging_20"
       style="display:inline">
      <title
         id="title184668">battery-level-10-charging</title>
      <path
         id="path184670"
         style="fill:#33d17a;fill-opacity:1"
         d="m 31.9992,247 h 1 v -3 h -1 z"
         class="success" />
      <rect
         y="236"
         x="20"
         height="16"
         width="16"
         id="rect184672"
         style="fill:none" />
      <path
         id="path184674"
         style="fill:#ffffff;fill-opacity:1"
         d="m 19.9992,245 c 0,1 1,1 1,1 h 1 v 1 c 0,0 -0.0137,0.7086 0.35547,1.44727 C 22.72385,249.18593 23.6656,250 24.9992,250 h 8 c 0,0 0.70891,0.0138 1.44727,-0.35547 C 35.18482,249.27521 35.9992,248.3332 35.9992,247 v -5 h -2 v 5 c 0,0.554 -0.446,1 -1,1 h -8 c -0.554,0 -1,-0.446 -1,-1 v -4 -2 c 0,-0.554 0.446,-1 1,-1 h 2 v -2 h -2 c -1.3336,0 -2.27535,0.81407 -2.64453,1.55273 C 21.98548,240.2914 21.9992,241 21.9992,241 v 1 h -1 c -1,0 -1,1 -1,1 z m 8,-6 h 0.006 a 1.0001,1.0001 0 0 0 0.28711,0.70703 l 3,3 A 1.0001,1.0001 0 0 0 31.9992,243 h 1 v -1 -1 -1.13086 l 1.44531,0.96289 a 1.0001,1.0001 0 0 0 0.55469,0.16211 V 241 h 1 v -1 h -0.004 a 1.0001,1.0001 0 0 0 -0.28906,-0.70703 l -3,-3 A 1.0001,1.0001 0 0 0 31.9992,236.00391 V 236 h -1 v 1 1 1.13086 l -1.44531,-0.96289 A 1.0001,1.0001 0 0 0 28.9992,238.00195 V 238 h -1 z" />
    </g>
  </g>
  <g
     inkscape:groupmode="layer"
     id="layer14"
     inkscape:label="_charging_10"
     style="display:inline">
    <g
       id="g184973"
       transform="matrix(0.396875,0,0,-0.396875,-7.8050483,100.14481)"
       inkscape:label="_charging_10"
       style="display:inline">
      <title
         id="title184965">battery-level-0-charging</title>
      <rect
         y="236"
         x="20"
         height="16"
         width="16"
         id="rect184969"
         style="fill:none" />
      <path
         id="path184971"
         style="fill:#ffffff;fill-opacity:1"
         d="m 19.9992,245 c 0,1 1,1 1,1 h 1 v 1 c 0,0 -0.0137,0.7086 0.35547,1.44727 C 22.72385,249.18593 23.6656,250 24.9992,250 h 8 c 0,0 0.70891,0.0138 1.44727,-0.35547 C 35.18482,249.27521 35.9992,248.3332 35.9992,247 v -5 h -2 v 5 c 0,0.554 -0.446,1 -1,1 h -8 c -0.554,0 -1,-0.446 -1,-1 v -4 -2 c 0,-0.554 0.446,-1 1,-1 h 2 v -2 h -2 c -1.3336,0 -2.27535,0.81407 -2.64453,1.55273 C 21.98548,240.2914 21.9992,241 21.9992,241 v 1 h -1 c -1,0 -1,1 -1,1 z m 8,-6 h 0.006 a 1.0001,1.0001 0 0 0 0.28711,0.70703 l 3,3 A 1.0001,1.0001 0 0 0 31.9992,243 h 1 v -1 -1 -1.13086 l 1.44531,0.96289 a 1.0001,1.0001 0 0 0 0.55469,0.16211 V 241 h 1 v -1 h -0.004 a 1.0001,1.0001 0 0 0 -0.28906,-0.70703 l -3,-3 A 1.0001,1.0001 0 0 0 31.9992,236.00391 V 236 h -1 v 1 1 1.13086 l -1.44531,-0.96289 A 1.0001,1.0001 0 0 0 28.9992,238.00195 V 238 h -1 z" />
    </g>
  </g>
  <g
     inkscape:groupmode="layer"
     id="layer13"
     inkscape:label="_charging_0"
     style="display:inline">
    <g
       id="g5556"
       transform="matrix(0.396875,0,0,-0.396875,-7.8050483,100.14481)"
       inkscape:label="_charging_0"
       style="display:inline">
      <title
         id="title5550">battery-level-0-charging</title>
      <rect
         y="236"
         x="20"
         height="16"
         width="16"
         id="rect5552"
         style="fill:none" />
      <path
         id="path5554"
         style="fill:#ffffff;fill-opacity:1"
         d="m 19.9992,245 c 0,1 1,1 1,1 h 1 v 1 c 0,0 -0.0137,0.7086 0.35547,1.44727 C 22.72385,249.18593 23.6656,250 24.9992,250 h 8 c 0,0 0.70891,0.0138 1.44727,-0.35547 C 35.18482,249.27521 35.9992,248.3332 35.9992,247 v -5 h -2 v 5 c 0,0.554 -0.446,1 -1,1 h -8 c -0.554,0 -1,-0.446 -1,-1 v -4 -2 c 0,-0.554 0.446,-1 1,-1 h 2 v -2 h -2 c -1.3336,0 -2.27535,0.81407 -2.64453,1.55273 C 21.98548,240.2914 21.9992,241 21.9992,241 v 1 h -1 c -1,0 -1,1 -1,1 z m 8,-6 h 0.006 a 1.0001,1.0001 0 0 0 0.28711,0.70703 l 3,3 A 1.0001,1.0001 0 0 0 31.9992,243 h 1 v -1 -1 -1.13086 l 1.44531,0.96289 a 1.0001,1.0001 0 0 0 0.55469,0.16211 V 241 h 1 v -1 h -0.004 a 1.0001,1.0001 0 0 0 -0.28906,-0.70703 l -3,-3 A 1.0001,1.0001 0 0 0 31.9992,236.00391 V 236 h -1 v 1 1 1.13086 l -1.44531,-0.96289 A 1.0001,1.0001 0 0 0 28.9992,238.00195 V 238 h -1 z" />
    </g>
  </g>
  <g
     inkscape:groupmode="layer"
     id="layer12"
     inkscape:label="_100"
     style="display:inline">
    <g
       id="g13118"
       transform="matrix(0.39685516,0,0,0.39685516,-7.8044928,-93.525347)"
       inkscape:label="_100"
       style="display:inline">
      <title
         id="title44642">battery-level-100</title>
      <path
         id="path10036"
         d="m 19.9992,245 c 0,1 1,1 1,1 h 1 v 1 c 0,0 -0.0137,0.7086 0.35547,1.44727 C 22.72385,249.18593 23.6656,250 24.9992,250 h 8 c 0,0 0.70891,0.0138 1.44727,-0.35547 C 35.18482,249.27521 35.9992,248.3332 35.9992,247 v -6 c 0,0 0.014,-0.70887 -0.35547,-1.44727 C 35.27424,238.81434 34.33253,238 32.9992,238 h -8 c -1.3336,0 -2.27535,0.81407 -2.64453,1.55273 C 21.98548,240.2914 21.9992,241 21.9992,241 v 1 h -1 c -1,0 -1,1 -1,1 z m 4,-4 c 0,-0.554 0.446,-1 1,-1 h 8 c 0.554,0 1,0.446 1,1 v 6 c 0,0.554 -0.446,1 -1,1 h -8 c -0.554,0 -1,-0.446 -1,-1 v -3 z m 1,6 h 8 v -6 h -8 z"
         style="fill:#ffffff;fill-opacity:1" />
      <rect
         y="236"
         x="20"
         height="16"
         width="16"
         id="rect10038"
         style="fill:none" />
    </g>
  </g>
  <g
     inkscape:groupmode="layer"
     id="layer11"
     inkscape:label="_90"
     style="display:inline">
    <g
       id="g5528"
       transform="matrix(1.1250386,0,0,1.1250386,-71.401406,-95.078972)"
       inkscape:label="_90">
      <rect
         y="84.629349"
         x="63.583328"
         height="5.6442509"
         width="5.6442509"
         id="rect5523"
         style="display:inline;fill:none;stroke-width:0.352766" />
      <path
         id="path13858"
         style="display:inline;fill:#ffffff;fill-opacity:1;stroke-width:0.35279"
         d="m 63.583343,87.804209 c 0,0.352772 0.352768,0.352772 0.352768,0.352772 h 0.352764 v 0.352766 c 0,0 -0.0038,0.249968 0.12536,0.510538 0.13022,0.260574 0.462456,0.547758 0.932908,0.547758 h 2.822114 c 0,0 0.25008,0.004 0.51057,-0.12536 0.260446,-0.13026 0.54772,-0.462586 0.54772,-0.932894 v -2.116596 c 0,0 0.004,-0.250072 -0.12536,-0.510544 -0.13034,-0.260474 -0.462556,-0.547752 -0.932912,-0.547752 h -2.822094 c -0.47046,0 -0.80268,0.287174 -0.932918,0.547752 -0.13024,0.260574 -0.12536,0.510544 -0.12536,0.510544 v 0.352726 h -0.352798 c -0.352756,0 -0.352756,0.352782 -0.352756,0.352782 z m 1.411058,0.705538 v -1.411062 -0.705538 c 0,-0.19542 0.15734,-0.35277 0.35279,-0.35277 h 2.822102 c 0.19544,0 0.352768,0.15734 0.352768,0.35277 v 2.1166 c 0,0.19542 -0.15732,0.352768 -0.352768,0.352768 h -2.822102 c -0.19544,0 -0.35279,-0.15734 -0.35279,-0.352768 z m 0.705544,0 h 2.469348 v -2.1166 h -2.469348 z" />
    </g>
  </g>
  <g
     inkscape:groupmode="layer"
     id="layer10"
     inkscape:label="_80"
     style="display:inline">
    <g
       id="g14866"
       transform="matrix(0.39685516,0,0,0.39685516,-7.8044928,-93.525347)"
       inkscape:label="_80"
       style="display:inline">
      <title
         id="title44646">battery-level-80</title>
      <path
         id="path14860"
         style="fill:#ffffff;fill-opacity:1"
         d="m 19.9992,245 c 0,1 1,1 1,1 h 1 v 1 c 0,0 -0.0137,0.7086 0.35547,1.44727 C 22.72385,249.18593 23.6656,250 24.9992,250 h 8 c 0,0 0.70891,0.0138 1.44727,-0.35547 C 35.18482,249.27521 35.9992,248.3332 35.9992,247 v -6 c 0,0 0.014,-0.70887 -0.35547,-1.44727 C 35.27423,238.81434 34.33252,238 32.9992,238 h -8 c -1.33361,0 -2.27535,0.81407 -2.64453,1.55273 C 21.98547,240.2914 21.9992,241 21.9992,241 v 1 h -1 c -1,0 -1,1 -1,1 z m 4,-1 v -3 c 0,-0.554 0.446,-1 1,-1 h 8 c 0.554,0 1,0.446 1,1 v 6 c 0,0.554 -0.446,1 -1,1 h -8 c -0.554,0 -1,-0.446 -1,-1 z m 3,3 h 6 v -6 h -6 z" />
      <rect
         y="236"
         x="20"
         height="16"
         width="16"
         id="rect14862"
         style="fill:none" />
    </g>
  </g>
  <g
     inkscape:groupmode="layer"
     id="layer9"
     inkscape:label="_70"
     style="display:inline">
    <g
       id="g15087"
       transform="matrix(0.39685516,0,0,0.39685516,-7.8044928,-93.525347)"
       inkscape:label="_70"
       style="display:inline">
      <title
         id="title44648">battery-level-70</title>
      <path
         id="path15081"
         style="fill:#ffffff;fill-opacity:1"
         d="m 19.9992,245 c 0,1 1,1 1,1 h 1 v 1 c 0,0 -0.0137,0.7086 0.35547,1.44727 C 22.72385,249.18593 23.6656,250 24.9992,250 h 8 c 0,0 0.70891,0.0138 1.44727,-0.35547 C 35.18482,249.27521 35.9992,248.3332 35.9992,247 v -6 c 0,0 0.014,-0.70887 -0.35547,-1.44727 C 35.27423,238.81434 34.33252,238 32.9992,238 h -8 c -1.33361,0 -2.27535,0.81407 -2.64453,1.55273 C 21.98547,240.2914 21.9992,241 21.9992,241 v 1 h -1 c -1,0 -1,1 -1,1 z m 4,-1 v -3 c 0,-0.554 0.446,-1 1,-1 h 8 c 0.554,0 1,0.446 1,1 v 6 c 0,0.554 -0.446,1 -1,1 h -8 c -0.554,0 -1,-0.446 -1,-1 z m 4,3 h 5 v -6 h -5 z" />
      <rect
         y="236"
         x="20"
         height="16"
         width="16"
         id="rect15083"
         style="fill:none" />
    </g>
  </g>
  <g
     inkscape:groupmode="layer"
     id="layer8"
     inkscape:label="_60"
     style="display:inline">
    <g
       id="g15232"
       transform="matrix(0.39685516,0,0,0.39685516,-7.8044928,-93.525347)"
       inkscape:label="_60"
       style="display:inline">
      <title
         id="title44650">battery-level-60</title>
      <path
         id="path15226"
         style="fill:#ffffff;fill-opacity:1"
         d="m 19.9992,245 c 0,1 1,1 1,1 h 1 v 1 c 0,0 -0.0137,0.7086 0.35547,1.44727 C 22.72385,249.18593 23.6656,250 24.9992,250 h 8 c 0,0 0.70891,0.0138 1.44727,-0.35547 C 35.18482,249.27521 35.9992,248.3332 35.9992,247 v -6 c 0,0 0.014,-0.70887 -0.35547,-1.44727 C 35.27424,238.81434 34.33253,238 32.9992,238 h -8 c -1.3336,0 -2.27535,0.81407 -2.64453,1.55273 C 21.98548,240.2914 21.9992,241 21.9992,241 v 1 h -1 c -1,0 -1,1 -1,1 z m 4,-4 c 0,-0.554 0.446,-1 1,-1 h 8 c 0.554,0 1,0.446 1,1 v 6 c 0,0.554 -0.446,1 -1,1 h -8 c -0.554,0 -1,-0.446 -1,-1 v -3 z m 5,6 h 4 v -6 h -4 z" />
      <rect
         y="236"
         x="20"
         height="16"
         width="16"
         id="rect15228"
         style="fill:none" />
    </g>
  </g>
  <g
     inkscape:groupmode="layer"
     id="layer7"
     inkscape:label="_50"
     style="display:inline">
    <g
       id="g15377"
       transform="matrix(0.39685516,0,0,0.39685516,-7.8044928,-93.525347)"
       inkscape:label="_50"
       style="display:inline">
      <title
         id="title44652">battery-level-50</title>
      <path
         id="path15371"
         style="fill:#ffffff;fill-opacity:1"
         d="m 19.9992,245 c 0,1 1,1 1,1 h 1 v 1 c 0,0 -0.0137,0.7086 0.35547,1.44727 C 22.72385,249.18593 23.6656,250 24.9992,250 h 8 c 0,0 0.70891,0.0138 1.44727,-0.35547 C 35.18482,249.27521 35.9992,248.3332 35.9992,247 v -6 c 0,0 0.014,-0.70887 -0.35547,-1.44727 C 35.27424,238.81434 34.33253,238 32.9992,238 h -8 c -1.3336,0 -2.27535,0.81407 -2.64453,1.55273 C 21.98548,240.2914 21.9992,241 21.9992,241 v 1 h -1 c -1,0 -1,1 -1,1 z m 4,-4 c 0,-0.554 0.446,-1 1,-1 h 8 c 0.554,0 1,0.446 1,1 v 6 c 0,0.554 -0.446,1 -1,1 h -8 c -0.554,0 -1,-0.446 -1,-1 v -3 z m 5,6 h 4 v -6 h -4 z" />
      <rect
         y="236"
         x="20"
         height="16"
         width="16"
         id="rect15373"
         style="fill:none" />
    </g>
  </g>
  <g
     inkscape:groupmode="layer"
     id="layer6"
     inkscape:label="_40"
     style="display:inline">
    <g
       id="g15560"
       transform="matrix(0.39685516,0,0,0.39685516,-7.8044928,-93.525347)"
       inkscape:label="_40"
       style="display:inline">
      <title
         id="title44654">battery-level-40</title>
      <path
         id="path15554"
         style="fill:#ffffff;fill-opacity:1"
         d="m 19.9992,245 c 0,1 1,1 1,1 h 1 v 1.00977 c 0,0 -0.0137,0.70859 0.35547,1.44726 0.36918,0.73866 1.31093,1.55274 2.64453,1.55274 h 8 c 0,0 0.70891,0.0138 1.44727,-0.35547 0.73835,-0.36932 1.55273,-1.31133 1.55273,-2.64453 v -6 c 0,0 0.014,-0.70887 -0.35547,-1.44727 -0.36949,-0.73839 -1.3112,-1.55273 -2.64453,-1.55273 h -8 c -1.3336,0 -2.27535,0.81407 -2.64453,1.55273 -0.36919,0.73867 -0.35547,1.44727 -0.35547,1.44727 V 242 l -1,0.01 c -0.99995,0.01 -1,1 -1,1 z m 4,-3.99023 c 0,-0.554 0.446,-1 1,-1 h 8 c 0.554,0 1,0.446 1,1 v 6 c 0,0.554 -0.446,1 -1,1 h -8 c -0.554,0 -1,-0.446 -1,-1 v -3 z m 6,5.99023 h 3 v -6 h -3 z" />
      <rect
         y="236"
         x="20"
         height="16"
         width="16"
         id="rect15556"
         style="fill:none;fill-opacity:1" />
    </g>
  </g>
  <g
     inkscape:groupmode="layer"
     id="layer5"
     inkscape:label="_30"
     style="display:inline">
    <g
       id="g15926"
       transform="matrix(0.39685516,0,0,0.39685516,-7.8044928,-93.525347)"
       inkscape:label="_30"
       style="display:inline">
      <title
         id="title44658">battery-level-20</title>
      <path
         id="path15920"
         style="fill:#ffffff"
         d="m 627,116 c -1,0 -1,1 -1,1 v 1 h -1 c 0,0 -0.7086,-0.0137 -1.44727,0.35547 C 622.81407,118.72465 622,119.6664 622,121 v 8 c 0,0 -0.0138,0.70891 0.35547,1.44727 C 622.72479,131.18562 623.6668,132 625,132 h 6 c 0,0 0.70887,0.014 1.44727,-0.35547 C 633.18566,131.27504 634,130.33333 634,129 v -8 c 0,-1.3336 -0.81407,-2.27535 -1.55273,-2.64453 C 631.7086,117.98628 631,118 631,118 h -1 v -1 c 0,0 0,-1 -1,-1 z m 4,4 c 0.554,0 1,0.446 1,1 v 8 c 0,0.554 -0.446,1 -1,1 h -6 c -0.554,0 -1,-0.446 -1,-1 v -8 c 0,-0.554 0.446,-1 1,-1 h 3 z"
         transform="rotate(-90,387.9996,484.0004)" />
      <rect
         y="236"
         x="20"
         height="16"
         width="16"
         id="rect15922"
         style="fill:none" />
      <path
         id="path15924"
         d="m 30.9992,247 h 2.000801 v -6 H 30.9992 Z"
         style="fill:#ff7800;fill-opacity:1"
         class="warning" />
    </g>
  </g>
  <g
     inkscape:groupmode="layer"
     id="layer4"
     inkscape:label="_20"
     inkscape:export-filename="20.png"
     inkscape:export-xdpi="96"
     inkscape:export-ydpi="96"
     style="display:inline">
    <g
       id="g4622"
       transform="matrix(0.39685516,0,0,0.39685516,-7.8044928,-93.525347)"
       inkscape:label="_20"
       style="display:inline">
      <title
         id="title4614">battery-level-20</title>
      <path
         id="path4616"
         style="fill:#ffffff"
         d="m 627,116 c -1,0 -1,1 -1,1 v 1 h -1 c 0,0 -0.7086,-0.0137 -1.44727,0.35547 C 622.81407,118.72465 622,119.6664 622,121 v 8 c 0,0 -0.0138,0.70891 0.35547,1.44727 C 622.72479,131.18562 623.6668,132 625,132 h 6 c 0,0 0.70887,0.014 1.44727,-0.35547 C 633.18566,131.27504 634,130.33333 634,129 v -8 c 0,-1.3336 -0.81407,-2.27535 -1.55273,-2.64453 C 631.7086,117.98628 631,118 631,118 h -1 v -1 c 0,0 0,-1 -1,-1 z m 4,4 c 0.554,0 1,0.446 1,1 v 8 c 0,0.554 -0.446,1 -1,1 h -6 c -0.554,0 -1,-0.446 -1,-1 v -8 c 0,-0.554 0.446,-1 1,-1 h 3 z"
         transform="rotate(-90,387.9996,484.0004)" />
      <rect
         y="236"
         x="20"
         height="16"
         width="16"
         id="rect4618"
         style="fill:none" />
      <path
         id="path4620"
         d="m 31.999205,247 h 1.000796 v -6 h -1.000796 z"
         style="fill:#ff7800;fill-opacity:1;stroke-width:0.707246"
         class="warning" />
    </g>
  </g>
  <g
     inkscape:groupmode="layer"
     id="layer25"
     inkscape:label="_10"
     style="display:inline">
    <g
       id="g7091"
       inkscape:label="_10"
       transform="translate(-127.08286,-84.49704)"
       inkscape:export-filename="10.png"
       inkscape:export-xdpi="96"
       inkscape:export-ydpi="96">
      <rect
         y="-836"
         x="116.0008"
         height="16"
         width="16"
         id="rect7085"
         transform="matrix(0.39685513,0,0,0.39685513,81.179953,416.4004)"
         style="display:inline;fill:none" />
      <path
         id="path16030"
         d="m 805,128 v 1.0008 h 2 V 128 Z"
         class="error"
         style="display:inline;fill:#ff7800;fill-opacity:1"
         transform="matrix(0,-0.39687499,0.39685512,0,81.179635,408.47935)" />
      <path
         style="display:inline;fill:#ffffff;fill-opacity:1"
         d="m 826,117 v 1 h -1 c 0,0 -0.7086,-0.0137 -1.44727,0.35547 C 822.81407,118.72465 822,119.6664 822,121 v 8 c 0,0 -0.0138,0.70891 0.35547,1.44727 C 822.72479,131.18562 823.6668,132 825,132 h 2 v -2 h -2 c -0.554,0 -1,-0.446 -1,-1 v -8 c 0,-0.554 0.446,-1 1,-1 h 3 3 c 0.554,0 1,0.446 1,1 v 3.86086 h 2 V 121 c 0,-1.3336 -0.81407,-2.27535 -1.55273,-2.64453 C 831.7086,117.98628 831,118 831,118 h -1 v -1 c 0,-1 -1,-1 -1,-1 h -2 c 0,0 -1,0 -1,1 z"
         id="path7087"
         sodipodi:nodetypes="sccsscssccsssscssccssccsccs"
         transform="matrix(0,-0.39685513,0.39685513,0,81.179953,416.4004)" />
      <path
         style="display:inline;fill:#ff7800;fill-opacity:1;stroke-width:0.762095"
         d="m 834,127.04638 c 0,-0.63296 -0.51018,-1.14314 -1.14314,-1.14314 h -3.81048 c -0.63296,0 -1.14314,0.51018 -1.14314,1.14314 v 3.81048 c 0,0.63296 0.51018,1.14314 1.14314,1.14314 h 3.81048 C 833.48982,132 834,131.48982 834,130.85686 Z m -0.7621,1.14314 v 1.52419 h -1.90523 c 0,0 -0.38105,0 -0.38105,-0.38104 v -0.7621 c 0,-0.38105 0.38105,-0.38105 0.38105,-0.38105 z m -3.04838,0.38105 v 0.7621 c 0,0.2111 -0.16994,0.38104 -0.38104,0.38104 h -0.7621 c -0.2111,0 -0.38105,-0.16994 -0.38105,-0.38104 v -0.7621 c 0,-0.2111 0.16995,-0.38105 0.38105,-0.38105 h 0.7621 c 0.2111,0 0.38104,0.16995 0.38104,0.38105 z"
         id="path7089"
         transform="matrix(0,-0.39685513,0.39685513,0,81.179953,416.4004)" />
    </g>
  </g>
  <g
     inkscape:groupmode="layer"
     id="layer24"
     inkscape:label="_0"
     style="display:inline">
    <g
       id="g5590"
       inkscape:label="_0"
       transform="translate(-127.08286,-84.49704)">
      <rect
         y="-836"
         x="116.0008"
         height="16"
         width="16"
         id="rect5544"
         transform="matrix(0.39685513,0,0,0.39685513,81.179953,416.4004)"
         style="display:inline;fill:none" />
      <path
         style="display:inline;fill:#ed333b;fill-opacity:1"
         d="m 826,117 v 1 h -1 c 0,0 -0.7086,-0.0137 -1.44727,0.35547 C 822.81407,118.72465 822,119.6664 822,121 v 8 c 0,0 -0.0138,0.70891 0.35547,1.44727 C 822.72479,131.18562 823.6668,132 825,132 h 2 v -2 h -2 c -0.554,0 -1,-0.446 -1,-1 v -8 c 0,-0.554 0.446,-1 1,-1 h 3 3 c 0.554,0 1,0.446 1,1 v 3.86086 h 2 V 121 c 0,-1.3336 -0.81407,-2.27535 -1.55273,-2.64453 C 831.7086,117.98628 831,118 831,118 h -1 v -1 c 0,-1 -1,-1 -1,-1 h -2 c 0,0 -1,0 -1,1 z"
         id="path5542"
         sodipodi:nodetypes="sccsscssccsssscssccssccsccs"
         transform="matrix(0,-0.39685513,0.39685513,0,81.179953,416.4004)" />
      <path
         style="display:inline;fill:#ed333b;fill-opacity:1;stroke-width:0.762095"
         d="m 834,127.04638 c 0,-0.63296 -0.51018,-1.14314 -1.14314,-1.14314 h -3.81048 c -0.63296,0 -1.14314,0.51018 -1.14314,1.14314 v 3.81048 c 0,0.63296 0.51018,1.14314 1.14314,1.14314 h 3.81048 C 833.48982,132 834,131.48982 834,130.85686 Z m -0.7621,1.14314 v 1.52419 h -1.90523 c 0,0 -0.38105,0 -0.38105,-0.38104 v -0.7621 c 0,-0.38105 0.38105,-0.38105 0.38105,-0.38105 z m -3.04838,0.38105 v 0.7621 c 0,0.2111 -0.16994,0.38104 -0.38104,0.38104 h -0.7621 c -0.2111,0 -0.38105,-0.16994 -0.38105,-0.38104 v -0.7621 c 0,-0.2111 0.16995,-0.38105 0.38105,-0.38105 h 0.7621 c 0.2111,0 0.38104,0.16995 0.38104,0.38105 z"
         id="path5540"
         transform="matrix(0,-0.39685513,0.39685513,0,81.179953,416.4004)" />
    </g>
  </g>
</svg>
