<?xml version="1.0" encoding="UTF-8" standalone="no"?>
<!-- Created with Inkscape (http://www.inkscape.org/) -->

<svg
   width="640"
   height="480"
   viewBox="0 0 169.33333 127"
   version="1.1"
   id="svg54366"
   xml:space="preserve"
   inkscape:export-filename="reboot.png"
   inkscape:export-xdpi="96"
   inkscape:export-ydpi="96"
   inkscape:version="1.2.2 (b0a8486541, 2022-12-01)"
   sodipodi:docname="BOOT.svg"
   xmlns:inkscape="http://www.inkscape.org/namespaces/inkscape"
   xmlns:sodipodi="http://sodipodi.sourceforge.net/DTD/sodipodi-0.dtd"
   xmlns="http://www.w3.org/2000/svg"
   xmlns:svg="http://www.w3.org/2000/svg"><sodipodi:namedview
     id="namedview54368"
     pagecolor="#505050"
     bordercolor="#eeeeee"
     borderopacity="1"
     inkscape:showpageshadow="0"
     inkscape:pageopacity="0"
     inkscape:pagecheckerboard="0"
     inkscape:deskcolor="#d1d1d1"
     inkscape:document-units="mm"
     showgrid="false"
     inkscape:zoom="1.0255231"
     inkscape:cx="64.844957"
     inkscape:cy="232.07669"
     inkscape:window-width="2560"
     inkscape:window-height="1367"
     inkscape:window-x="2560"
     inkscape:window-y="36"
     inkscape:window-maximized="1"
     inkscape:current-layer="layer14" /><defs
     id="defs54363" /><g
     inkscape:groupmode="layer"
     id="layer14"
     inkscape:label="MuXCHARGE"
     inkscape:export-filename="../../../../../../../home/yomama/GIT/MuOS Themes/Hexagons/image/wall/default.png"
     inkscape:export-xdpi="96"
     inkscape:export-ydpi="96"
     style="display:none"><rect
       style="display:inline;fill:#000000;stroke-width:0.132292;stroke-linecap:square;stroke-miterlimit:5;paint-order:fill markers stroke"
       id="rect58689"
       width="169.33333"
       height="127"
       x="0"
       y="0"
       ry="7.0499161e-16" /><path
       sodipodi:type="star"
       style="display:inline;fill:#d4aa00;stroke-width:0.132292;stroke-linecap:square;stroke-miterlimit:5;paint-order:fill markers stroke"
       id="path58568"
       inkscape:flatsided="true"
       sodipodi:sides="6"
       sodipodi:cx="-71.849472"
       sodipodi:cy="-22.22867"
       sodipodi:r1="11.710281"
       sodipodi:r2="10.141401"
       sodipodi:arg1="1.0471976"
       sodipodi:arg2="1.5707963"
       inkscape:rounded="0"
       inkscape:randomized="0"
       d="m -65.994332,-12.087269 -11.710281,0 -5.85514,-10.141402 5.855141,-10.141401 11.710281,10e-7 5.85514,10.141401 z"
       transform="matrix(3.3439338,0,0,3.3439338,324.92662,112.36725)" /><g
       style="clip-rule:evenodd;display:inline;fill-rule:evenodd;image-rendering:optimizeQuality;shape-rendering:geometricPrecision;text-rendering:geometricPrecision"
       id="g54594"
       transform="matrix(0.10852051,0,0,0.10852051,56.885491,21.567537)"><path
         fill-rule="nonzero"
         d="m 462.99,235.67 v -24.12 h 37.15 c 3.29,0 6.25,-1.35 8.38,-3.48 a 11.89,11.89 0 0 0 3.48,-8.39 v -95.87 c 0,-3.26 -1.36,-6.25 -3.49,-8.38 -2.13,-2.13 -5.11,-3.49 -8.37,-3.49 H 462.99 V 67.83 c 0,-20.79 -17.03,-37.79 -37.8,-37.79 H 306.05 l -4.55,24.97 h 120.98 c 8.53,0 15.53,6.98 15.53,15.53 v 162.42 c 0,8.52 -7.01,15.53 -15.53,15.53 H 268.07 l -15.56,24.98 h 172.68 c 20.81,0 37.8,-16.98 37.8,-37.8 z M 258.98,117.91 h 37.01 c 7.85,0.03 12.33,8.8 8.07,15.17 L 200.7,298.89 c -5.56,9.09 -19.94,3.71 -17.84,-6.97 l 28.17,-107.6 -43.9,0.74 c -7.59,0.14 -12.27,-8.08 -8.51,-14.6 L 260.63,4.69 c 5.39,-8.93 19.33,-4.15 17.97,6.28 z M 208.16,30.04 H 37.79 C 16.99,30.04 0,47.03 0,67.83 v 167.84 c 0,20.78 17.03,37.8 37.79,37.8 h 118.4 l 6.54,-24.98 H 40.5 c -8.54,0 -15.53,-6.99 -15.53,-15.53 V 70.54 c 0,-8.51 7.02,-15.53 15.53,-15.53 h 152.09 c 5.18,-8.38 10.37,-16.71 15.57,-24.97 z"
         id="path54585" /></g></g><g
     inkscape:groupmode="layer"
     id="layer13"
     inkscape:label="BOOT"
     style="display:none"><rect
       style="fill:#000000;stroke-width:0.132292;stroke-linecap:square;stroke-miterlimit:5;paint-order:fill markers stroke"
       id="rect58686"
       width="169.33333"
       height="127"
       x="0"
       y="0"
       ry="7.0499161e-16" /><path
       sodipodi:type="star"
       style="fill:#d4aa00;stroke-width:0.132292;stroke-linecap:square;stroke-miterlimit:5;paint-order:fill markers stroke"
       id="path58580"
       inkscape:flatsided="true"
       sodipodi:sides="6"
       sodipodi:cx="-71.849472"
       sodipodi:cy="-22.22867"
       sodipodi:r1="11.710281"
       sodipodi:r2="10.141401"
       sodipodi:arg1="1.0471976"
       sodipodi:arg2="1.5707963"
       inkscape:rounded="0"
       inkscape:randomized="0"
       d="m -65.994332,-12.087269 -11.710281,0 -5.85514,-10.141402 5.855141,-10.141401 11.710281,10e-7 5.85514,10.141401 z"
       transform="matrix(3.3439338,0,0,3.3439338,324.92662,112.36725)" /><g
       id="g55797"
       transform="matrix(0.43245807,0,0,0.43245807,50.769827,-53.965224)"
       style="display:inline"><path
         id="use55384"
         style="fill:#cccccc;stroke-width:0.132292;stroke-linecap:square;stroke-miterlimit:5;paint-order:fill markers stroke"
         inkscape:transform-center-x="0.41474826"
         inkscape:transform-center-y="-40.549572"
         d="m 78.0887,148.5 c -4.584978,0 -8.276133,3.69116 -8.276133,8.27613 v 30.82927 c 0,4.58498 3.691155,8.27613 8.276133,8.27613 4.584978,0 8.276134,-3.69115 8.276134,-8.27613 v -30.82927 c 0,-4.58497 -3.691156,-8.27613 -8.276134,-8.27613 z" /><path
         id="use55386"
         style="fill:#b3b3b3;stroke-width:0.132292;stroke-linecap:square;stroke-miterlimit:5;paint-order:fill markers stroke"
         inkscape:transform-center-x="0.41474826"
         inkscape:transform-center-y="-40.549572"
         transform="matrix(-0.70710678,-0.70710678,-0.70710678,0.70710678,0,0)"
         d="m -205.43981,30.765379 c 4.58498,0 8.27613,3.691156 8.27613,8.276133 v 30.829264 c 0,4.584978 -3.69115,8.276134 -8.27613,8.276134 -4.58498,0 -8.27613,-3.691156 -8.27613,-8.276134 V 39.041512 c 0,-4.584977 3.69115,-8.276133 8.27613,-8.276133 z" /><path
         id="use55388"
         style="fill:#999999;stroke-width:0.132292;stroke-linecap:square;stroke-miterlimit:5;paint-order:fill markers stroke"
         inkscape:transform-center-x="0.41474826"
         inkscape:transform-center-y="-40.549572"
         transform="matrix(0,-1,-1,0,0,0)"
         d="m -212.32558,-142.6223 c 4.58498,0 8.27613,3.69116 8.27613,8.27613 v 30.82927 c 0,4.584976 -3.69115,8.276132 -8.27613,8.276132 -4.58498,0 -8.27614,-3.691156 -8.27614,-8.276132 v -30.82927 c 0,-4.58497 3.69116,-8.27613 8.27614,-8.27613 z" /><path
         id="use55390"
         style="fill:#808080;stroke-width:0.132292;stroke-linecap:square;stroke-miterlimit:5;paint-order:fill markers stroke"
         inkscape:transform-center-x="0.41474826"
         inkscape:transform-center-y="-40.549572"
         transform="matrix(0.70710678,-0.70710678,-0.70710678,-0.70710678,0,0)"
         d="m -94.59097,-270.09488 c 4.584978,0 8.276133,3.69116 8.276133,8.27613 v 30.82927 c 0,4.58498 -3.691155,8.27613 -8.276133,8.27613 -4.584978,0 -8.27613,-3.69115 -8.27613,-8.27613 v -30.82927 c 0,-4.58497 3.691152,-8.27613 8.27613,-8.27613 z" /><path
         id="use55392"
         style="fill:#666666;stroke-width:0.132292;stroke-linecap:square;stroke-miterlimit:5;paint-order:fill markers stroke"
         inkscape:transform-center-x="0.41474826"
         inkscape:transform-center-y="-40.549572"
         transform="scale(1,-1)"
         d="m 78.796718,-276.98065 c 4.584978,0 8.276133,3.69115 8.276133,8.27613 v 30.82927 c 0,4.58497 -3.691155,8.27613 -8.276133,8.27613 -4.584978,0 -8.276134,-3.69116 -8.276134,-8.27613 v -30.82927 c 0,-4.58498 3.691156,-8.27613 8.276134,-8.27613 z" /><path
         id="use55394"
         style="fill:#4d4d4d;stroke-width:0.132292;stroke-linecap:square;stroke-miterlimit:5;paint-order:fill markers stroke"
         inkscape:transform-center-x="0.41474826"
         inkscape:transform-center-y="-40.549572"
         transform="matrix(0.70710678,0.70710678,0.70710678,-0.70710678,0,0)"
         d="m 206.2693,-159.24603 c 4.58498,0 8.27613,3.69115 8.27613,8.27613 v 30.82926 c 0,4.58498 -3.69115,8.27614 -8.27613,8.27614 -4.58498,0 -8.27614,-3.69116 -8.27614,-8.27614 v -30.82926 c 0,-4.58498 3.69116,-8.27613 8.27614,-8.27613 z" /><path
         id="use55396"
         style="fill:#333333;stroke-width:0.132292;stroke-linecap:square;stroke-miterlimit:5;paint-order:fill markers stroke"
         inkscape:transform-center-x="0.41474826"
         inkscape:transform-center-y="-40.549572"
         transform="matrix(0,1,1,0,0,0)"
         d="m 213.15507,14.141638 c 4.58498,0 8.27613,3.691155 8.27613,8.276133 v 30.829264 c 0,4.584978 -3.69115,8.276134 -8.27613,8.276134 -4.58498,0 -8.27613,-3.691156 -8.27613,-8.276134 V 22.417771 c 0,-4.584978 3.69115,-8.276133 8.27613,-8.276133 z" /><path
         id="use55398"
         style="fill:#1a1a1a;stroke-width:0.132292;stroke-linecap:square;stroke-miterlimit:5;paint-order:fill markers stroke"
         inkscape:transform-center-x="0.41474826"
         inkscape:transform-center-y="-40.549572"
         transform="matrix(-0.70710678,0.70710678,0.70710678,0.70710678,0,0)"
         d="m 95.420459,141.61423 c 4.584981,0 8.276131,3.69115 8.276131,8.27613 v 30.82926 c 0,4.58498 -3.69115,8.27614 -8.276131,8.27614 -4.584978,0 -8.276134,-3.69116 -8.276134,-8.27614 v -30.82926 c 0,-4.58498 3.691156,-8.27613 8.276134,-8.27613 z" /></g></g><g
     inkscape:groupmode="layer"
     id="layer12"
     inkscape:label="MUXLAUNCH"
     style="display:none"><rect
       style="fill:#000000;stroke-width:0.132292;stroke-linecap:square;stroke-miterlimit:5;paint-order:fill markers stroke"
       id="rect58677"
       width="169.33333"
       height="127"
       x="0"
       y="0"
       ry="7.0499161e-16" /><path
       sodipodi:type="star"
       style="fill:#d4aa00;stroke-width:0.132292;stroke-linecap:square;stroke-miterlimit:5;paint-order:fill markers stroke"
       id="path58570"
       inkscape:flatsided="true"
       sodipodi:sides="6"
       sodipodi:cx="-71.849472"
       sodipodi:cy="-22.22867"
       sodipodi:r1="11.710281"
       sodipodi:r2="10.141401"
       sodipodi:arg1="1.0471976"
       sodipodi:arg2="1.5707963"
       inkscape:rounded="0"
       inkscape:randomized="0"
       d="m -65.994332,-12.087269 -11.710281,0 -5.85514,-10.141402 5.855141,-10.141401 11.710281,10e-7 5.85514,10.141401 z"
       transform="matrix(3.3439338,0,0,3.3439338,324.92662,112.36725)" /><g
       id="g58609"
       transform="matrix(0.43245807,0,0,0.43245807,50.769827,-53.965224)"
       style="display:inline"><path
         id="path58593"
         style="fill:#cccccc;stroke-width:0.132292;stroke-linecap:square;stroke-miterlimit:5;paint-order:fill markers stroke"
         inkscape:transform-center-x="0.41474826"
         inkscape:transform-center-y="-40.549572"
         d="m 78.0887,148.5 c -4.584978,0 -8.276133,3.69116 -8.276133,8.27613 v 30.82927 c 0,4.58498 3.691155,8.27613 8.276133,8.27613 4.584978,0 8.276134,-3.69115 8.276134,-8.27613 v -30.82927 c 0,-4.58497 -3.691156,-8.27613 -8.276134,-8.27613 z" /><path
         id="path58595"
         style="fill:#b3b3b3;stroke-width:0.132292;stroke-linecap:square;stroke-miterlimit:5;paint-order:fill markers stroke"
         inkscape:transform-center-x="0.41474826"
         inkscape:transform-center-y="-40.549572"
         transform="matrix(-0.70710678,-0.70710678,-0.70710678,0.70710678,0,0)"
         d="m -205.43981,30.765379 c 4.58498,0 8.27613,3.691156 8.27613,8.276133 v 30.829264 c 0,4.584978 -3.69115,8.276134 -8.27613,8.276134 -4.58498,0 -8.27613,-3.691156 -8.27613,-8.276134 V 39.041512 c 0,-4.584977 3.69115,-8.276133 8.27613,-8.276133 z" /><path
         id="path58597"
         style="fill:#999999;stroke-width:0.132292;stroke-linecap:square;stroke-miterlimit:5;paint-order:fill markers stroke"
         inkscape:transform-center-x="0.41474826"
         inkscape:transform-center-y="-40.549572"
         transform="matrix(0,-1,-1,0,0,0)"
         d="m -212.32558,-142.6223 c 4.58498,0 8.27613,3.69116 8.27613,8.27613 v 30.82927 c 0,4.584976 -3.69115,8.276132 -8.27613,8.276132 -4.58498,0 -8.27614,-3.691156 -8.27614,-8.276132 v -30.82927 c 0,-4.58497 3.69116,-8.27613 8.27614,-8.27613 z" /><path
         id="path58599"
         style="fill:#808080;stroke-width:0.132292;stroke-linecap:square;stroke-miterlimit:5;paint-order:fill markers stroke"
         inkscape:transform-center-x="0.41474826"
         inkscape:transform-center-y="-40.549572"
         transform="matrix(0.70710678,-0.70710678,-0.70710678,-0.70710678,0,0)"
         d="m -94.59097,-270.09488 c 4.584978,0 8.276133,3.69116 8.276133,8.27613 v 30.82927 c 0,4.58498 -3.691155,8.27613 -8.276133,8.27613 -4.584978,0 -8.27613,-3.69115 -8.27613,-8.27613 v -30.82927 c 0,-4.58497 3.691152,-8.27613 8.27613,-8.27613 z" /><path
         id="path58601"
         style="fill:#666666;stroke-width:0.132292;stroke-linecap:square;stroke-miterlimit:5;paint-order:fill markers stroke"
         inkscape:transform-center-x="0.41474826"
         inkscape:transform-center-y="-40.549572"
         transform="scale(1,-1)"
         d="m 78.796718,-276.98065 c 4.584978,0 8.276133,3.69115 8.276133,8.27613 v 30.82927 c 0,4.58497 -3.691155,8.27613 -8.276133,8.27613 -4.584978,0 -8.276134,-3.69116 -8.276134,-8.27613 v -30.82927 c 0,-4.58498 3.691156,-8.27613 8.276134,-8.27613 z" /><path
         id="path58603"
         style="fill:#4d4d4d;stroke-width:0.132292;stroke-linecap:square;stroke-miterlimit:5;paint-order:fill markers stroke"
         inkscape:transform-center-x="0.41474826"
         inkscape:transform-center-y="-40.549572"
         transform="matrix(0.70710678,0.70710678,0.70710678,-0.70710678,0,0)"
         d="m 206.2693,-159.24603 c 4.58498,0 8.27613,3.69115 8.27613,8.27613 v 30.82926 c 0,4.58498 -3.69115,8.27614 -8.27613,8.27614 -4.58498,0 -8.27614,-3.69116 -8.27614,-8.27614 v -30.82926 c 0,-4.58498 3.69116,-8.27613 8.27614,-8.27613 z" /><path
         id="path58605"
         style="fill:#333333;stroke-width:0.132292;stroke-linecap:square;stroke-miterlimit:5;paint-order:fill markers stroke"
         inkscape:transform-center-x="0.41474826"
         inkscape:transform-center-y="-40.549572"
         transform="matrix(0,1,1,0,0,0)"
         d="m 213.15507,14.141638 c 4.58498,0 8.27613,3.691155 8.27613,8.276133 v 30.829264 c 0,4.584978 -3.69115,8.276134 -8.27613,8.276134 -4.58498,0 -8.27613,-3.691156 -8.27613,-8.276134 V 22.417771 c 0,-4.584978 3.69115,-8.276133 8.27613,-8.276133 z" /><path
         id="path58607"
         style="fill:#1a1a1a;stroke-width:0.132292;stroke-linecap:square;stroke-miterlimit:5;paint-order:fill markers stroke"
         inkscape:transform-center-x="0.41474826"
         inkscape:transform-center-y="-40.549572"
         transform="matrix(-0.70710678,0.70710678,0.70710678,0.70710678,0,0)"
         d="m 95.420459,141.61423 c 4.584981,0 8.276131,3.69115 8.276131,8.27613 v 30.82926 c 0,4.58498 -3.69115,8.27614 -8.276131,8.27614 -4.584978,0 -8.276134,-3.69116 -8.276134,-8.27614 v -30.82926 c 0,-4.58498 3.691156,-8.27613 8.276134,-8.27613 z" /></g></g><g
     inkscape:groupmode="layer"
     id="layer11"
     inkscape:label="SHUTDOWN"
     style="display:none"><rect
       style="fill:#000000;stroke-width:0.132292;stroke-linecap:square;stroke-miterlimit:5;paint-order:fill markers stroke"
       id="rect58679"
       width="169.33333"
       height="127"
       x="0"
       y="0"
       ry="7.0499161e-16" /><path
       sodipodi:type="star"
       style="fill:#d4aa00;stroke-width:0.132292;stroke-linecap:square;stroke-miterlimit:5;paint-order:fill markers stroke"
       id="path58572"
       inkscape:flatsided="true"
       sodipodi:sides="6"
       sodipodi:cx="-71.849472"
       sodipodi:cy="-22.22867"
       sodipodi:r1="11.710281"
       sodipodi:r2="10.141401"
       sodipodi:arg1="1.0471976"
       sodipodi:arg2="1.5707963"
       inkscape:rounded="0"
       inkscape:randomized="0"
       d="m -65.994332,-12.087269 -11.710281,0 -5.85514,-10.141402 5.855141,-10.141401 11.710281,10e-7 5.85514,10.141401 z"
       transform="matrix(3.3439338,0,0,3.3439338,324.92662,112.36725)" /><path
       id="path3869-2"
       d="m 84.664037,10.254799 a 3.7041661,3.7041661 0 0 0 -3.70416,3.704169 v 18.520837 a 3.7041661,3.7041661 0 0 0 3.70416,3.704168 3.7041661,3.7041661 0 0 0 3.70418,-3.704168 V 13.958968 a 3.7041661,3.7041661 0 0 0 -3.70418,-3.704169 z m -11.61168,6.728294 a 3.7037405,3.7046051 0 0 0 -1.36736,0.463 c -10.13031,5.862659 -15.08635,17.840159 -12.06025,29.148623 3.0261,11.308379 13.29939,19.205368 25.00313,19.222556 11.70374,0.01694 22.001683,-7.850761 25.060993,-19.150208 3.05932,-11.29949 -1.86041,-23.292356 -11.973433,-29.184819 a 3.7037405,3.7046051 0 0 0 -5.06428,1.331214 3.7037405,3.7046051 0 0 0 1.33118,5.071535 c 7.249683,4.224063 10.751763,12.742971 8.558643,20.84316 -2.19312,8.100232 -9.508623,13.693144 -17.898643,13.680825 -8.39002,-0.0127 -15.69316,-5.624832 -17.86247,-13.731455 -2.16932,-8.106625 1.34723,-16.618759 8.60929,-20.821486 a 3.7037405,3.7046051 0 0 0 1.3529,-5.057057 3.7037405,3.7046051 0 0 0 -2.25,-1.721866 3.7037405,3.7046051 0 0 0 -1.4397,-0.09398 z"
       style="display:inline;fill:#000000;fill-opacity:1;stroke-width:3.70416" /></g><rect
     style="display:none;fill:#000000;stroke-width:0.132292;stroke-linecap:square;stroke-miterlimit:5;paint-order:fill markers stroke"
     id="rect58675"
     width="169.33333"
     height="127"
     x="0"
     y="0"
     ry="7.0499161e-16" /><g
     inkscape:groupmode="layer"
     id="layer10"
     inkscape:label="REBOOT"
     style="display:none"><rect
       style="display:none;fill:#000000;stroke-width:0.132292;stroke-linecap:square;stroke-miterlimit:5;paint-order:fill markers stroke"
       id="rect58681"
       width="169.33333"
       height="127"
       x="0"
       y="0"
       ry="7.0499161e-16" /><path
       sodipodi:type="star"
       style="fill:#d4aa00;stroke-width:0.132292;stroke-linecap:square;stroke-miterlimit:5;paint-order:fill markers stroke"
       id="path58574"
       inkscape:flatsided="true"
       sodipodi:sides="6"
       sodipodi:cx="-71.849472"
       sodipodi:cy="-22.22867"
       sodipodi:r1="11.710281"
       sodipodi:r2="10.141401"
       sodipodi:arg1="1.0471976"
       sodipodi:arg2="1.5707963"
       inkscape:rounded="0"
       inkscape:randomized="0"
       d="m -65.994332,-12.087269 -11.710281,0 -5.85514,-10.141402 5.855141,-10.141401 11.710281,10e-7 5.85514,10.141401 z"
       transform="matrix(3.3439338,0,0,3.3439338,324.92662,112.36725)" /><path
       id="path3869-2-3"
       d="m 84.665241,10.254799 c -2.04592,0 -3.70444,1.658494 -3.70427,3.70438 v 18.520875 c -4.7e-4,2.046138 1.65813,3.705054 3.70427,3.705054 2.04612,0 3.70474,-1.658916 3.70424,-3.705054 V 13.959179 c 1.8e-4,-2.045886 -1.65832,-3.70438 -3.70424,-3.70438 z m -24.105761,6.27287 5.772612,5.028606 c -7.836865,7.838863 -9.819107,19.830415 -4.927084,29.778536 4.892188,9.94719 15.604033,15.692248 26.595533,14.26701 10.99156,-1.426336 19.880099,-9.717532 22.073699,-20.583143 2.19366,-10.865358 -2.78026,-21.956522 -12.357179,-27.535589 -1.76794,-1.029166 -4.0352,-0.430064 -5.0644,1.337776 -1.02976,1.76585 -0.43396,4.032334 1.33118,5.064081 6.860519,3.997538 10.405439,11.887412 8.833759,19.67175 -1.57166,7.785523 -7.898659,13.679805 -15.772059,14.702113 C 79.172121,59.279127 71.559001,55.190997 68.053996,48.065196 64.549032,40.937448 65.955722,32.40978 71.570141,26.7935 l 5.68657,5.686554 V 17.641967 c 0,-1.924008 -1.65788,-3.682788 -3.70426,-3.682788 z"
       style="display:inline;fill:#000000;fill-opacity:1;stroke-width:3.70426"
       sodipodi:nodetypes="sccsccscccccccccccccssc" /></g></svg>
