<?xml version="1.0" encoding="UTF-8" standalone="no"?>
<!-- Created with Inkscape (http://www.inkscape.org/) -->

<svg
   width="48"
   height="48"
   viewBox="0 0 12.7 12.7"
   version="1.1"
   id="svg5"
   inkscape:version="1.2.2 (b0a8486541, 2022-12-01)"
   sodipodi:docname="FOOTER.svg"
   inkscape:export-filename="../glyph/footer/menu.png"
   inkscape:export-xdpi="96"
   inkscape:export-ydpi="96"
   xml:space="preserve"
   xmlns:inkscape="http://www.inkscape.org/namespaces/inkscape"
   xmlns:sodipodi="http://sodipodi.sourceforge.net/DTD/sodipodi-0.dtd"
   xmlns="http://www.w3.org/2000/svg"
   xmlns:svg="http://www.w3.org/2000/svg"><sodipodi:namedview
     id="namedview7"
     pagecolor="#505050"
     bordercolor="#eeeeee"
     borderopacity="1"
     inkscape:showpageshadow="0"
     inkscape:pageopacity="0"
     inkscape:pagecheckerboard="0"
     inkscape:deskcolor="#d1d1d1"
     inkscape:document-units="mm"
     showgrid="false"
     inkscape:zoom="5.656854"
     inkscape:cx="-23.422913"
     inkscape:cy="46.66905"
     inkscape:window-width="2560"
     inkscape:window-height="1367"
     inkscape:window-x="2560"
     inkscape:window-y="36"
     inkscape:window-maximized="1"
     inkscape:current-layer="layer9" /><defs
     id="defs2" /><g
     inkscape:groupmode="layer"
     id="layer9"
     inkscape:label="UP"
     style="display:inline"><path
       sodipodi:type="star"
       style="display:inline;fill:#d4aa00;fill-opacity:1;stroke:none;stroke-width:0.132292;stroke-linecap:square;stroke-miterlimit:5;stroke-dasharray:none;stroke-opacity:1;paint-order:fill markers stroke;enable-background:new"
       id="path59207"
       inkscape:flatsided="true"
       sodipodi:sides="6"
       sodipodi:cx="-26.954048"
       sodipodi:cy="28.985483"
       sodipodi:r1="14.439337"
       sodipodi:r2="12.504832"
       sodipodi:arg1="1.0471976"
       sodipodi:arg2="1.5707963"
       inkscape:rounded="0"
       inkscape:randomized="0"
       d="m -19.73438,41.490316 -14.439337,-10e-7 -7.219668,-12.504833 7.219669,-12.504832 14.439337,1e-6 7.219668,12.504833 z"
       transform="matrix(0.38085276,0.21988545,-0.21988545,0.38085276,22.989009,1.2376051)" /><g
       id="g59258"
       transform="matrix(0.79991322,0,0,0.79991322,1.2705511,1.2705511)"><rect
         style="fill:#000000;fill-opacity:1;stroke:none;stroke-width:0.130928;stroke-linecap:square;stroke-miterlimit:5;paint-order:fill markers stroke"
         id="rect621"
         width="12.569072"
         height="3.9145634"
         x="0.065464117"
         y="4.3927183"
         ry="1.2188379" /><rect
         style="fill:#000000;fill-opacity:1;stroke:none;stroke-width:0.130928;stroke-linecap:square;stroke-miterlimit:5;paint-order:fill markers stroke"
         id="rect623"
         width="12.569072"
         height="3.9145634"
         x="0.065464117"
         y="-8.3072815"
         ry="1.2188379"
         transform="rotate(90)" /><g
         style="clip-rule:evenodd;fill:#ffffff;fill-rule:evenodd;image-rendering:optimizeQuality;shape-rendering:geometricPrecision;text-rendering:geometricPrecision"
         id="g2293"
         transform="matrix(0,-0.0052383,0.00578074,0,5.0090066,3.5112883)"><path
           fill-rule="nonzero"
           d="m 0,131.29 h 243.5 v -92.3 c 0.68,-15.48 5.77,-26.47 15.42,-32.82 25.8,-17.21 52.31,5.25 69.25,22.6 l 169.5,173.58 c 19.1,17.29 19.1,41.93 0,59.22 L 323.28,439.53 c -16.06,16.39 -40.55,34.09 -64.36,18.22 -9.65,-6.36 -14.74,-17.35 -15.42,-32.82 v -92.3 H 0 Z"
           id="path2284"
           style="fill:#ffffff" /></g><g
         style="clip-rule:evenodd;fill:#333333;fill-rule:evenodd;image-rendering:optimizeQuality;shape-rendering:geometricPrecision;text-rendering:geometricPrecision"
         id="g2660"
         transform="matrix(0.0052383,0,0,0.00578074,9.1225009,5.0090066)"><path
           fill-rule="nonzero"
           d="m 0,131.29 h 243.5 v -92.3 c 0.68,-15.48 5.77,-26.47 15.42,-32.82 25.8,-17.21 52.31,5.25 69.25,22.6 l 169.5,173.58 c 19.1,17.29 19.1,41.93 0,59.22 L 323.28,439.53 c -16.06,16.39 -40.55,34.09 -64.36,18.22 -9.65,-6.36 -14.74,-17.35 -15.42,-32.82 v -92.3 H 0 Z"
           id="path2658"
           style="fill:#333333" /></g><g
         style="clip-rule:evenodd;fill:#333333;fill-rule:evenodd;image-rendering:optimizeQuality;shape-rendering:geometricPrecision;text-rendering:geometricPrecision"
         id="g2664"
         transform="matrix(0,0.0052383,-0.00578074,0,7.6909934,9.1887117)"><path
           fill-rule="nonzero"
           d="m 0,131.29 h 243.5 v -92.3 c 0.68,-15.48 5.77,-26.47 15.42,-32.82 25.8,-17.21 52.31,5.25 69.25,22.6 l 169.5,173.58 c 19.1,17.29 19.1,41.93 0,59.22 L 323.28,439.53 c -16.06,16.39 -40.55,34.09 -64.36,18.22 -9.65,-6.36 -14.74,-17.35 -15.42,-32.82 v -92.3 H 0 Z"
           id="path2662"
           style="fill:#333333" /></g><g
         style="clip-rule:evenodd;fill:#333333;fill-rule:evenodd;image-rendering:optimizeQuality;shape-rendering:geometricPrecision;text-rendering:geometricPrecision"
         id="g2668"
         transform="matrix(-0.0052383,0,0,-0.00578074,3.5774987,7.6909934)"><path
           fill-rule="nonzero"
           d="m 0,131.29 h 243.5 v -92.3 c 0.68,-15.48 5.77,-26.47 15.42,-32.82 25.8,-17.21 52.31,5.25 69.25,22.6 l 169.5,173.58 c 19.1,17.29 19.1,41.93 0,59.22 L 323.28,439.53 c -16.06,16.39 -40.55,34.09 -64.36,18.22 -9.65,-6.36 -14.74,-17.35 -15.42,-32.82 v -92.3 H 0 Z"
           id="path2666"
           style="fill:#333333" /></g></g></g><g
     inkscape:groupmode="layer"
     id="g4142"
     inkscape:label="DOWN"
     style="display:inline"><path
       sodipodi:type="star"
       style="display:inline;fill:#d4aa00;fill-opacity:1;stroke:none;stroke-width:0.132292;stroke-linecap:square;stroke-miterlimit:5;stroke-dasharray:none;stroke-opacity:1;paint-order:fill markers stroke;enable-background:new"
       id="path59205"
       inkscape:flatsided="true"
       sodipodi:sides="6"
       sodipodi:cx="-26.954048"
       sodipodi:cy="28.985483"
       sodipodi:r1="14.439337"
       sodipodi:r2="12.504832"
       sodipodi:arg1="1.0471976"
       sodipodi:arg2="1.5707963"
       inkscape:rounded="0"
       inkscape:randomized="0"
       d="m -19.73438,41.490316 -14.439337,-10e-7 -7.219668,-12.504833 7.219669,-12.504832 14.439337,1e-6 7.219668,12.504833 z"
       transform="matrix(0.38085276,0.21988545,-0.21988545,0.38085276,22.989009,1.2376051)" /><g
       id="g59246"
       transform="matrix(0.79991322,0,0,0.79991322,1.2705511,1.2705511)"><rect
         style="fill:#000000;fill-opacity:1;stroke:none;stroke-width:0.130928;stroke-linecap:square;stroke-miterlimit:5;paint-order:fill markers stroke"
         id="rect4122"
         width="12.569072"
         height="3.9145634"
         x="0.065464117"
         y="4.3927183"
         ry="1.2188379" /><rect
         style="fill:#000000;fill-opacity:1;stroke:none;stroke-width:0.130928;stroke-linecap:square;stroke-miterlimit:5;paint-order:fill markers stroke"
         id="rect4124"
         width="12.569072"
         height="3.9145634"
         x="0.065464117"
         y="-8.3072815"
         ry="1.2188379"
         transform="rotate(90)" /><g
         style="clip-rule:evenodd;fill:#333333;fill-rule:evenodd;image-rendering:optimizeQuality;shape-rendering:geometricPrecision;text-rendering:geometricPrecision"
         id="g4128"
         transform="matrix(0,-0.0052383,0.00578074,0,5.0090066,3.5112883)"><path
           fill-rule="nonzero"
           d="m 0,131.29 h 243.5 v -92.3 c 0.68,-15.48 5.77,-26.47 15.42,-32.82 25.8,-17.21 52.31,5.25 69.25,22.6 l 169.5,173.58 c 19.1,17.29 19.1,41.93 0,59.22 L 323.28,439.53 c -16.06,16.39 -40.55,34.09 -64.36,18.22 -9.65,-6.36 -14.74,-17.35 -15.42,-32.82 v -92.3 H 0 Z"
           id="path4126"
           style="fill:#333333" /></g><g
         style="clip-rule:evenodd;fill:#333333;fill-rule:evenodd;image-rendering:optimizeQuality;shape-rendering:geometricPrecision;text-rendering:geometricPrecision"
         id="g4132"
         transform="matrix(0.0052383,0,0,0.00578074,9.1225009,5.0090066)"><path
           fill-rule="nonzero"
           d="m 0,131.29 h 243.5 v -92.3 c 0.68,-15.48 5.77,-26.47 15.42,-32.82 25.8,-17.21 52.31,5.25 69.25,22.6 l 169.5,173.58 c 19.1,17.29 19.1,41.93 0,59.22 L 323.28,439.53 c -16.06,16.39 -40.55,34.09 -64.36,18.22 -9.65,-6.36 -14.74,-17.35 -15.42,-32.82 v -92.3 H 0 Z"
           id="path4130"
           style="fill:#333333" /></g><g
         style="clip-rule:evenodd;fill:#ffffff;fill-rule:evenodd;image-rendering:optimizeQuality;shape-rendering:geometricPrecision;text-rendering:geometricPrecision"
         id="g4136"
         transform="matrix(0,0.0052383,-0.00578074,0,7.6909934,9.1887117)"><path
           fill-rule="nonzero"
           d="m 0,131.29 h 243.5 v -92.3 c 0.68,-15.48 5.77,-26.47 15.42,-32.82 25.8,-17.21 52.31,5.25 69.25,22.6 l 169.5,173.58 c 19.1,17.29 19.1,41.93 0,59.22 L 323.28,439.53 c -16.06,16.39 -40.55,34.09 -64.36,18.22 -9.65,-6.36 -14.74,-17.35 -15.42,-32.82 v -92.3 H 0 Z"
           id="path4134"
           style="fill:#ffffff" /></g><g
         style="clip-rule:evenodd;fill:#333333;fill-rule:evenodd;image-rendering:optimizeQuality;shape-rendering:geometricPrecision;text-rendering:geometricPrecision"
         id="g4140"
         transform="matrix(-0.0052383,0,0,-0.00578074,3.5774987,7.6909934)"><path
           fill-rule="nonzero"
           d="m 0,131.29 h 243.5 v -92.3 c 0.68,-15.48 5.77,-26.47 15.42,-32.82 25.8,-17.21 52.31,5.25 69.25,22.6 l 169.5,173.58 c 19.1,17.29 19.1,41.93 0,59.22 L 323.28,439.53 c -16.06,16.39 -40.55,34.09 -64.36,18.22 -9.65,-6.36 -14.74,-17.35 -15.42,-32.82 v -92.3 H 0 Z"
           id="path4138"
           style="fill:#333333" /></g></g></g><g
     inkscape:groupmode="layer"
     id="g4164"
     inkscape:label="LEFT"
     style="display:inline"><path
       sodipodi:type="star"
       style="display:inline;fill:#d4aa00;fill-opacity:1;stroke:none;stroke-width:0.132292;stroke-linecap:square;stroke-miterlimit:5;stroke-dasharray:none;stroke-opacity:1;paint-order:fill markers stroke;enable-background:new"
       id="path59175"
       inkscape:flatsided="true"
       sodipodi:sides="6"
       sodipodi:cx="-26.954048"
       sodipodi:cy="28.985483"
       sodipodi:r1="14.439337"
       sodipodi:r2="12.504832"
       sodipodi:arg1="1.0471976"
       sodipodi:arg2="1.5707963"
       inkscape:rounded="0"
       inkscape:randomized="0"
       d="m -19.73438,41.490316 -14.439337,-10e-7 -7.219668,-12.504833 7.219669,-12.504832 14.439337,1e-6 7.219668,12.504833 z"
       transform="matrix(0.38085276,0.21988545,-0.21988545,0.38085276,22.989009,1.2376051)" /><g
       id="g59234"
       transform="matrix(0.79991322,0,0,0.79991322,1.2705511,1.2705511)"><rect
         style="fill:#000000;fill-opacity:1;stroke:none;stroke-width:0.130928;stroke-linecap:square;stroke-miterlimit:5;paint-order:fill markers stroke"
         id="rect4144"
         width="12.569072"
         height="3.9145634"
         x="0.065464117"
         y="4.3927183"
         ry="1.2188379" /><rect
         style="fill:#000000;fill-opacity:1;stroke:none;stroke-width:0.130928;stroke-linecap:square;stroke-miterlimit:5;paint-order:fill markers stroke"
         id="rect4146"
         width="12.569072"
         height="3.9145634"
         x="0.065464117"
         y="-8.3072815"
         ry="1.2188379"
         transform="rotate(90)" /><g
         style="clip-rule:evenodd;fill:#333333;fill-rule:evenodd;image-rendering:optimizeQuality;shape-rendering:geometricPrecision;text-rendering:geometricPrecision"
         id="g4150"
         transform="matrix(0,-0.0052383,0.00578074,0,5.0090066,3.5112883)"><path
           fill-rule="nonzero"
           d="m 0,131.29 h 243.5 v -92.3 c 0.68,-15.48 5.77,-26.47 15.42,-32.82 25.8,-17.21 52.31,5.25 69.25,22.6 l 169.5,173.58 c 19.1,17.29 19.1,41.93 0,59.22 L 323.28,439.53 c -16.06,16.39 -40.55,34.09 -64.36,18.22 -9.65,-6.36 -14.74,-17.35 -15.42,-32.82 v -92.3 H 0 Z"
           id="path4148"
           style="fill:#333333" /></g><g
         style="clip-rule:evenodd;fill:#333333;fill-rule:evenodd;image-rendering:optimizeQuality;shape-rendering:geometricPrecision;text-rendering:geometricPrecision"
         id="g4154"
         transform="matrix(0.0052383,0,0,0.00578074,9.1225009,5.0090066)"><path
           fill-rule="nonzero"
           d="m 0,131.29 h 243.5 v -92.3 c 0.68,-15.48 5.77,-26.47 15.42,-32.82 25.8,-17.21 52.31,5.25 69.25,22.6 l 169.5,173.58 c 19.1,17.29 19.1,41.93 0,59.22 L 323.28,439.53 c -16.06,16.39 -40.55,34.09 -64.36,18.22 -9.65,-6.36 -14.74,-17.35 -15.42,-32.82 v -92.3 H 0 Z"
           id="path4152"
           style="fill:#333333" /></g><g
         style="clip-rule:evenodd;fill:#333333;fill-rule:evenodd;image-rendering:optimizeQuality;shape-rendering:geometricPrecision;text-rendering:geometricPrecision"
         id="g4158"
         transform="matrix(0,0.0052383,-0.00578074,0,7.6909934,9.1887117)"><path
           fill-rule="nonzero"
           d="m 0,131.29 h 243.5 v -92.3 c 0.68,-15.48 5.77,-26.47 15.42,-32.82 25.8,-17.21 52.31,5.25 69.25,22.6 l 169.5,173.58 c 19.1,17.29 19.1,41.93 0,59.22 L 323.28,439.53 c -16.06,16.39 -40.55,34.09 -64.36,18.22 -9.65,-6.36 -14.74,-17.35 -15.42,-32.82 v -92.3 H 0 Z"
           id="path4156"
           style="fill:#333333" /></g><g
         style="clip-rule:evenodd;fill:#ffffff;fill-rule:evenodd;image-rendering:optimizeQuality;shape-rendering:geometricPrecision;text-rendering:geometricPrecision"
         id="g4162"
         transform="matrix(-0.0052383,0,0,-0.00578074,3.5774987,7.6909934)"><path
           fill-rule="nonzero"
           d="m 0,131.29 h 243.5 v -92.3 c 0.68,-15.48 5.77,-26.47 15.42,-32.82 25.8,-17.21 52.31,5.25 69.25,22.6 l 169.5,173.58 c 19.1,17.29 19.1,41.93 0,59.22 L 323.28,439.53 c -16.06,16.39 -40.55,34.09 -64.36,18.22 -9.65,-6.36 -14.74,-17.35 -15.42,-32.82 v -92.3 H 0 Z"
           id="path4160"
           style="fill:#ffffff" /></g></g></g><g
     inkscape:groupmode="layer"
     id="g4186"
     inkscape:label="RIGHT"
     style="display:inline"><path
       sodipodi:type="star"
       style="display:inline;fill:#d4aa00;fill-opacity:1;stroke:none;stroke-width:0.132292;stroke-linecap:square;stroke-miterlimit:5;stroke-dasharray:none;stroke-opacity:1;paint-order:fill markers stroke;enable-background:new"
       id="path59195"
       inkscape:flatsided="true"
       sodipodi:sides="6"
       sodipodi:cx="-26.954048"
       sodipodi:cy="28.985483"
       sodipodi:r1="14.439337"
       sodipodi:r2="12.504832"
       sodipodi:arg1="1.0471976"
       sodipodi:arg2="1.5707963"
       inkscape:rounded="0"
       inkscape:randomized="0"
       d="m -19.73438,41.490316 -14.439337,-10e-7 -7.219668,-12.504833 7.219669,-12.504832 14.439337,1e-6 7.219668,12.504833 z"
       transform="matrix(0.38085276,0.21988545,-0.21988545,0.38085276,22.989009,1.2376051)" /><g
       id="g59222"
       transform="matrix(0.79991322,0,0,0.79991322,1.2705511,1.2705511)"><rect
         style="fill:#000000;fill-opacity:1;stroke:none;stroke-width:0.130928;stroke-linecap:square;stroke-miterlimit:5;paint-order:fill markers stroke"
         id="rect4166"
         width="12.569072"
         height="3.9145634"
         x="0.065464117"
         y="4.3927183"
         ry="1.2188379" /><rect
         style="fill:#000000;fill-opacity:1;stroke:none;stroke-width:0.130928;stroke-linecap:square;stroke-miterlimit:5;paint-order:fill markers stroke"
         id="rect4168"
         width="12.569072"
         height="3.9145634"
         x="0.065464117"
         y="-8.3072815"
         ry="1.2188379"
         transform="rotate(90)" /><g
         style="clip-rule:evenodd;fill:#333333;fill-rule:evenodd;image-rendering:optimizeQuality;shape-rendering:geometricPrecision;text-rendering:geometricPrecision"
         id="g4172"
         transform="matrix(0,-0.0052383,0.00578074,0,5.0090066,3.5112883)"><path
           fill-rule="nonzero"
           d="m 0,131.29 h 243.5 v -92.3 c 0.68,-15.48 5.77,-26.47 15.42,-32.82 25.8,-17.21 52.31,5.25 69.25,22.6 l 169.5,173.58 c 19.1,17.29 19.1,41.93 0,59.22 L 323.28,439.53 c -16.06,16.39 -40.55,34.09 -64.36,18.22 -9.65,-6.36 -14.74,-17.35 -15.42,-32.82 v -92.3 H 0 Z"
           id="path4170"
           style="fill:#333333" /></g><g
         style="clip-rule:evenodd;fill:#ffffff;fill-rule:evenodd;image-rendering:optimizeQuality;shape-rendering:geometricPrecision;text-rendering:geometricPrecision"
         id="g4176"
         transform="matrix(0.0052383,0,0,0.00578074,9.1225009,5.0090066)"><path
           fill-rule="nonzero"
           d="m 0,131.29 h 243.5 v -92.3 c 0.68,-15.48 5.77,-26.47 15.42,-32.82 25.8,-17.21 52.31,5.25 69.25,22.6 l 169.5,173.58 c 19.1,17.29 19.1,41.93 0,59.22 L 323.28,439.53 c -16.06,16.39 -40.55,34.09 -64.36,18.22 -9.65,-6.36 -14.74,-17.35 -15.42,-32.82 v -92.3 H 0 Z"
           id="path4174"
           style="fill:#ffffff" /></g><g
         style="clip-rule:evenodd;fill:#333333;fill-rule:evenodd;image-rendering:optimizeQuality;shape-rendering:geometricPrecision;text-rendering:geometricPrecision"
         id="g4180"
         transform="matrix(0,0.0052383,-0.00578074,0,7.6909934,9.1887117)"><path
           fill-rule="nonzero"
           d="m 0,131.29 h 243.5 v -92.3 c 0.68,-15.48 5.77,-26.47 15.42,-32.82 25.8,-17.21 52.31,5.25 69.25,22.6 l 169.5,173.58 c 19.1,17.29 19.1,41.93 0,59.22 L 323.28,439.53 c -16.06,16.39 -40.55,34.09 -64.36,18.22 -9.65,-6.36 -14.74,-17.35 -15.42,-32.82 v -92.3 H 0 Z"
           id="path4178"
           style="fill:#333333" /></g><g
         style="clip-rule:evenodd;fill:#333333;fill-rule:evenodd;image-rendering:optimizeQuality;shape-rendering:geometricPrecision;text-rendering:geometricPrecision"
         id="g4184"
         transform="matrix(-0.0052383,0,0,-0.00578074,3.5774987,7.6909934)"><path
           fill-rule="nonzero"
           d="m 0,131.29 h 243.5 v -92.3 c 0.68,-15.48 5.77,-26.47 15.42,-32.82 25.8,-17.21 52.31,5.25 69.25,22.6 l 169.5,173.58 c 19.1,17.29 19.1,41.93 0,59.22 L 323.28,439.53 c -16.06,16.39 -40.55,34.09 -64.36,18.22 -9.65,-6.36 -14.74,-17.35 -15.42,-32.82 v -92.3 H 0 Z"
           id="path4182"
           style="fill:#333333" /></g></g></g><g
     inkscape:groupmode="layer"
     id="g417"
     inkscape:label="START"
     style="display:inline"><path
       sodipodi:type="star"
       style="display:inline;fill:#d4aa00;fill-opacity:1;stroke:none;stroke-width:0.132292;stroke-linecap:square;stroke-miterlimit:5;stroke-dasharray:none;stroke-opacity:1;paint-order:fill markers stroke;enable-background:new"
       id="path59197"
       inkscape:flatsided="true"
       sodipodi:sides="6"
       sodipodi:cx="-26.954048"
       sodipodi:cy="28.985483"
       sodipodi:r1="14.439337"
       sodipodi:r2="12.504832"
       sodipodi:arg1="1.0471976"
       sodipodi:arg2="1.5707963"
       inkscape:rounded="0"
       inkscape:randomized="0"
       d="m -19.73438,41.490316 -14.439337,-10e-7 -7.219668,-12.504833 7.219669,-12.504832 14.439337,1e-6 7.219668,12.504833 z"
       transform="matrix(0.38085276,0.21988545,-0.21988545,0.38085276,22.989009,1.2376051)" /><text
       xml:space="preserve"
       style="font-style:normal;font-variant:normal;font-weight:bold;font-stretch:normal;font-size:3.90301px;line-height:0;font-family:'Argentum Novus';-inkscape-font-specification:'Argentum Novus, Bold';font-variant-ligatures:normal;font-variant-caps:normal;font-variant-numeric:normal;font-variant-east-asian:normal;text-align:center;letter-spacing:0px;word-spacing:0px;text-anchor:middle;display:inline;fill:#000000;stroke:none;stroke-width:0.042509;stroke-linecap:square;stroke-miterlimit:5;stroke-dasharray:none;paint-order:fill markers stroke"
       x="6.3304858"
       y="7.7238593"
       id="text415"
       inkscape:label="STRT"><tspan
         sodipodi:role="line"
         id="tspan427"
         x="6.3304858"
         y="7.7238593"
         style="display:inline;stroke-width:0.042509"
         inkscape:label="tspan427">STRT</tspan></text></g><g
     inkscape:groupmode="layer"
     id="g425"
     inkscape:label="SELECT"
     style="display:inline"><path
       sodipodi:type="star"
       style="display:inline;fill:#d4aa00;fill-opacity:1;stroke:none;stroke-width:0.132292;stroke-linecap:square;stroke-miterlimit:5;stroke-dasharray:none;stroke-opacity:1;paint-order:fill markers stroke;enable-background:new"
       id="path59199"
       inkscape:flatsided="true"
       sodipodi:sides="6"
       sodipodi:cx="-26.954048"
       sodipodi:cy="28.985483"
       sodipodi:r1="14.439337"
       sodipodi:r2="12.504832"
       sodipodi:arg1="1.0471976"
       sodipodi:arg2="1.5707963"
       inkscape:rounded="0"
       inkscape:randomized="0"
       d="m -19.73438,41.490316 -14.439337,-10e-7 -7.219668,-12.504833 7.219669,-12.504832 14.439337,1e-6 7.219668,12.504833 z"
       transform="matrix(0.38085276,0.21988545,-0.21988545,0.38085276,22.989009,1.2376051)" /><text
       xml:space="preserve"
       style="font-style:normal;font-variant:normal;font-weight:bold;font-stretch:normal;font-size:4.03296px;line-height:0;font-family:'Argentum Novus';-inkscape-font-specification:'Argentum Novus, Bold';font-variant-ligatures:normal;font-variant-caps:normal;font-variant-numeric:normal;font-variant-east-asian:normal;text-align:center;letter-spacing:0px;word-spacing:0px;text-anchor:middle;display:inline;fill:#000000;stroke:none;stroke-width:0.0439241;stroke-linecap:square;stroke-miterlimit:5;stroke-dasharray:none;paint-order:fill markers stroke"
       x="6.3298359"
       y="7.7655687"
       id="text423"
       inkscape:label="SLCT"><tspan
         sodipodi:role="line"
         id="tspan421"
         x="6.3298359"
         y="7.7655687"
         style="stroke-width:0.0439241">SLCT</tspan></text></g><g
     inkscape:groupmode="layer"
     id="layer7"
     inkscape:label="Y"
     style="display:inline"><path
       sodipodi:type="star"
       style="display:inline;fill:#d4aa00;fill-opacity:1;stroke:none;stroke-width:0.132292;stroke-linecap:square;stroke-miterlimit:5;stroke-dasharray:none;stroke-opacity:1;paint-order:fill markers stroke;enable-background:new"
       id="path59193"
       inkscape:flatsided="true"
       sodipodi:sides="6"
       sodipodi:cx="-26.954048"
       sodipodi:cy="28.985483"
       sodipodi:r1="14.439337"
       sodipodi:r2="12.504832"
       sodipodi:arg1="1.0471976"
       sodipodi:arg2="1.5707963"
       inkscape:rounded="0"
       inkscape:randomized="0"
       d="m -19.73438,41.490316 -14.439337,-10e-7 -7.219668,-12.504833 7.219669,-12.504832 14.439337,1e-6 7.219668,12.504833 z"
       transform="matrix(0.38085276,0.21988545,-0.21988545,0.38085276,22.989009,1.2376051)" /><text
       xml:space="preserve"
       style="font-style:normal;font-variant:normal;font-weight:bold;font-stretch:normal;font-size:8.99837px;line-height:0;font-family:'Argentum Novus';-inkscape-font-specification:'Argentum Novus, Bold';font-variant-ligatures:normal;font-variant-caps:normal;font-variant-numeric:normal;font-variant-east-asian:normal;text-align:center;letter-spacing:0px;word-spacing:0px;text-anchor:middle;display:inline;fill:#000000;stroke:none;stroke-width:0.098004;stroke-linecap:square;stroke-miterlimit:5;stroke-dasharray:none;paint-order:fill markers stroke"
       x="6.4489822"
       y="9.4904308"
       id="text2895"
       inkscape:label="Y"><tspan
         sodipodi:role="line"
         id="tspan2905"
         x="6.4489822"
         y="9.4904308">Y</tspan></text></g><g
     inkscape:groupmode="layer"
     id="layer6"
     inkscape:label="X"
     style="display:inline"><path
       sodipodi:type="star"
       style="display:inline;fill:#d4aa00;fill-opacity:1;stroke:none;stroke-width:0.132292;stroke-linecap:square;stroke-miterlimit:5;stroke-dasharray:none;stroke-opacity:1;paint-order:fill markers stroke;enable-background:new"
       id="path59179"
       inkscape:flatsided="true"
       sodipodi:sides="6"
       sodipodi:cx="-26.954048"
       sodipodi:cy="28.985483"
       sodipodi:r1="14.439337"
       sodipodi:r2="12.504832"
       sodipodi:arg1="1.0471976"
       sodipodi:arg2="1.5707963"
       inkscape:rounded="0"
       inkscape:randomized="0"
       d="m -19.73438,41.490316 -14.439337,-10e-7 -7.219668,-12.504833 7.219669,-12.504832 14.439337,1e-6 7.219668,12.504833 z"
       transform="matrix(0.38085276,0.21988545,-0.21988545,0.38085276,22.989009,1.2376051)" /><text
       xml:space="preserve"
       style="font-style:normal;font-variant:normal;font-weight:bold;font-stretch:normal;font-size:8.99837px;line-height:0;font-family:'Argentum Novus';-inkscape-font-specification:'Argentum Novus, Bold';font-variant-ligatures:normal;font-variant-caps:normal;font-variant-numeric:normal;font-variant-east-asian:normal;text-align:center;letter-spacing:0px;word-spacing:0px;text-anchor:middle;display:inline;fill:#000000;stroke:none;stroke-width:0.098004;stroke-linecap:square;stroke-miterlimit:5;stroke-dasharray:none;paint-order:fill markers stroke"
       x="6.4489822"
       y="9.4904308"
       id="text2899"
       inkscape:label="X"><tspan
         sodipodi:role="line"
         id="tspan2907"
         x="6.4489822"
         y="9.4904308">X</tspan></text></g><g
     inkscape:groupmode="layer"
     id="layer5"
     inkscape:label="B"
     style="display:inline"><path
       sodipodi:type="star"
       style="display:inline;fill:#d4aa00;fill-opacity:1;stroke:none;stroke-width:0.132292;stroke-linecap:square;stroke-miterlimit:5;stroke-dasharray:none;stroke-opacity:1;paint-order:fill markers stroke;enable-background:new"
       id="path59181"
       inkscape:flatsided="true"
       sodipodi:sides="6"
       sodipodi:cx="-26.954048"
       sodipodi:cy="28.985483"
       sodipodi:r1="14.439337"
       sodipodi:r2="12.504832"
       sodipodi:arg1="1.0471976"
       sodipodi:arg2="1.5707963"
       inkscape:rounded="0"
       inkscape:randomized="0"
       d="m -19.73438,41.490316 -14.439337,-10e-7 -7.219668,-12.504833 7.219669,-12.504832 14.439337,1e-6 7.219668,12.504833 z"
       transform="matrix(0.38085276,0.21988545,-0.21988545,0.38085276,22.989009,1.2376051)" /><text
       xml:space="preserve"
       style="font-style:normal;font-variant:normal;font-weight:bold;font-stretch:normal;font-size:8.99837px;line-height:0;font-family:'Argentum Novus';-inkscape-font-specification:'Argentum Novus, Bold';font-variant-ligatures:normal;font-variant-caps:normal;font-variant-numeric:normal;font-variant-east-asian:normal;text-align:center;letter-spacing:0px;word-spacing:0px;text-anchor:middle;display:inline;fill:#000000;stroke:none;stroke-width:0.098004;stroke-linecap:square;stroke-miterlimit:5;stroke-dasharray:none;paint-order:fill markers stroke"
       x="6.4489822"
       y="9.4904308"
       id="text2891"
       inkscape:label="B"><tspan
         sodipodi:role="line"
         id="tspan2903"
         x="6.4489822"
         y="9.4904308">B</tspan></text></g><g
     inkscape:groupmode="layer"
     id="layer4"
     inkscape:label="A"
     style="display:inline"><path
       sodipodi:type="star"
       style="display:inline;fill:#d4aa00;fill-opacity:1;stroke:none;stroke-width:0.132292;stroke-linecap:square;stroke-miterlimit:5;stroke-dasharray:none;stroke-opacity:1;paint-order:fill markers stroke;enable-background:new"
       id="path59183"
       inkscape:flatsided="true"
       sodipodi:sides="6"
       sodipodi:cx="-26.954048"
       sodipodi:cy="28.985483"
       sodipodi:r1="14.439337"
       sodipodi:r2="12.504832"
       sodipodi:arg1="1.0471976"
       sodipodi:arg2="1.5707963"
       inkscape:rounded="0"
       inkscape:randomized="0"
       d="m -19.73438,41.490316 -14.439337,-10e-7 -7.219668,-12.504833 7.219669,-12.504832 14.439337,1e-6 7.219668,12.504833 z"
       transform="matrix(0.38085276,0.21988545,-0.21988545,0.38085276,22.989009,1.2376051)" /><text
       xml:space="preserve"
       style="font-style:normal;font-variant:normal;font-weight:bold;font-stretch:normal;font-size:8.99837px;line-height:0;font-family:'Argentum Novus';-inkscape-font-specification:'Argentum Novus, Bold';font-variant-ligatures:normal;font-variant-caps:normal;font-variant-numeric:normal;font-variant-east-asian:normal;text-align:center;letter-spacing:0px;word-spacing:0px;text-anchor:middle;display:inline;fill:#000000;stroke:none;stroke-width:0.098004;stroke-linecap:square;stroke-miterlimit:5;stroke-dasharray:none;paint-order:fill markers stroke"
       x="6.4489822"
       y="9.4904308"
       id="text2677"
       inkscape:label="A"><tspan
         sodipodi:role="line"
         id="tspan2901"
         x="6.4489822"
         y="9.4904308"
         style="display:inline;fill:#000000">A</tspan></text></g><g
     inkscape:groupmode="layer"
     id="layer3"
     inkscape:label="MENU"
     style="display:inline"><path
       sodipodi:type="star"
       style="display:inline;fill:#d4aa00;fill-opacity:1;stroke:none;stroke-width:0.132292;stroke-linecap:square;stroke-miterlimit:5;stroke-dasharray:none;stroke-opacity:1;paint-order:fill markers stroke;enable-background:new"
       id="path59177"
       inkscape:flatsided="true"
       sodipodi:sides="6"
       sodipodi:cx="-26.954048"
       sodipodi:cy="28.985483"
       sodipodi:r1="14.439337"
       sodipodi:r2="12.504832"
       sodipodi:arg1="1.0471976"
       sodipodi:arg2="1.5707963"
       inkscape:rounded="0"
       inkscape:randomized="0"
       d="m -19.73438,41.490316 -14.439337,-10e-7 -7.219668,-12.504833 7.219669,-12.504832 14.439337,1e-6 7.219668,12.504833 z"
       transform="matrix(0.38085276,0.21988545,-0.21988545,0.38085276,22.989009,1.2376051)" /><rect
       style="display:inline;fill:#ffffff;fill-opacity:0;stroke:#000000;stroke-width:0.217093;stroke-linecap:square;stroke-miterlimit:5;stroke-dasharray:none;paint-order:fill markers stroke"
       id="rect3015"
       width="9.8370733"
       height="4.325798"
       x="1.4314634"
       y="4.1871009"
       ry="2.162899"
       inkscape:label="MENU" /><g
       id="g3026"
       transform="translate(0.26302496)"
       style="display:inline;fill:#ffffff;fill-opacity:0;stroke:#000000;stroke-width:0.5;stroke-dasharray:none"
       inkscape:label="CIRCLES"><path
         style="fill:#ffffff;fill-opacity:0;stroke:#000000;stroke-width:0.5;stroke-linecap:square;stroke-miterlimit:5;stroke-dasharray:none;paint-order:fill markers stroke"
         id="path3017"
         sodipodi:type="arc"
         sodipodi:cx="6.086977"
         sodipodi:cy="6.3515697"
         sodipodi:rx="1.2042274"
         sodipodi:ry="1.2042274"
         sodipodi:start="4.7056242"
         sodipodi:end="4.6824914"
         sodipodi:open="true"
         sodipodi:arc-type="arc"
         d="M 6.0788307,5.1473698 A 1.2042274,1.2042274 0 0 1 7.2911096,6.3364594 1.2042274,1.2042274 0 0 1 6.1090507,7.5555948 1.2042274,1.2042274 0 0 1 4.8830997,6.380606 1.2042274,1.2042274 0 0 1 6.0509789,5.1478804"
         inkscape:label="CENTER" /><path
         style="fill:#ffffff;fill-opacity:0;stroke:#000000;stroke-width:0.5;stroke-linecap:square;stroke-miterlimit:5;stroke-dasharray:none;paint-order:fill markers stroke"
         id="path3019"
         sodipodi:type="arc"
         sodipodi:cx="3.0954645"
         sodipodi:cy="6.3515697"
         sodipodi:rx="1.2042274"
         sodipodi:ry="1.2042274"
         sodipodi:start="4.7056242"
         sodipodi:end="4.6824914"
         sodipodi:open="true"
         sodipodi:arc-type="arc"
         d="M 3.0873182,5.1473698 A 1.2042274,1.2042274 0 0 1 4.2995971,6.3364594 1.2042274,1.2042274 0 0 1 3.1175381,7.5555948 1.2042274,1.2042274 0 0 1 1.8915871,6.380606 1.2042274,1.2042274 0 0 1 3.0594663,5.1478804"
         inkscape:label="LEFT" /><path
         style="fill:#ffffff;fill-opacity:0;stroke:#000000;stroke-width:0.5;stroke-linecap:square;stroke-miterlimit:5;stroke-dasharray:none;paint-order:fill markers stroke"
         id="path3021"
         sodipodi:type="arc"
         sodipodi:cx="9.0784893"
         sodipodi:cy="6.3515697"
         sodipodi:rx="1.2042274"
         sodipodi:ry="1.2042274"
         sodipodi:start="4.7056242"
         sodipodi:end="4.6824914"
         sodipodi:open="true"
         sodipodi:arc-type="arc"
         d="M 9.070343,5.1473698 A 1.2042274,1.2042274 0 0 1 10.282622,6.3364594 1.2042274,1.2042274 0 0 1 9.100563,7.5555948 1.2042274,1.2042274 0 0 1 7.874612,6.380606 1.2042274,1.2042274 0 0 1 9.0424912,5.1478804"
         inkscape:label="RIGHT" /></g></g></svg>
