<?xml version="1.0" encoding="UTF-8" standalone="no"?>
<!-- Created with Inkscape (http://www.inkscape.org/) -->

<svg
   width="640"
   height="480"
   viewBox="0 0 169.33333 127"
   version="1.1"
   id="svg13871"
   inkscape:export-filename="boot.png"
   inkscape:export-xdpi="96"
   inkscape:export-ydpi="96"
   inkscape:version="1.2.2 (b0a8486541, 2022-12-01)"
   sodipodi:docname="BOOT.svg"
   xmlns:inkscape="http://www.inkscape.org/namespaces/inkscape"
   xmlns:sodipodi="http://sodipodi.sourceforge.net/DTD/sodipodi-0.dtd"
   xmlns="http://www.w3.org/2000/svg"
   xmlns:svg="http://www.w3.org/2000/svg">
  <sodipodi:namedview
     id="namedview13873"
     pagecolor="#505050"
     bordercolor="#eeeeee"
     borderopacity="1"
     inkscape:showpageshadow="0"
     inkscape:pageopacity="0"
     inkscape:pagecheckerboard="0"
     inkscape:deskcolor="#d1d1d1"
     inkscape:document-units="mm"
     showgrid="false"
     inkscape:zoom="1.4503086"
     inkscape:cx="265.8055"
     inkscape:cy="235.81188"
     inkscape:window-width="2560"
     inkscape:window-height="1367"
     inkscape:window-x="2560"
     inkscape:window-y="36"
     inkscape:window-maximized="1"
     inkscape:current-layer="svg13871" />
  <defs
     id="defs13868" />
  <rect
     style="display:inline;fill:#000000;stroke:#000000;stroke-width:0.562809;stroke-linecap:square;stroke-miterlimit:5;paint-order:fill markers stroke"
     id="rect13992"
     width="168.77052"
     height="126.43719"
     x="0.28140402"
     y="0.28140402"
     inkscape:label="BACKGROUND" />
  <g
     inkscape:label="Ebene 1"
     inkscape:groupmode="layer"
     id="layer1">
    <g
       id="g14122"
       transform="matrix(3.9621547,0,0,3.9621547,-284.53231,-132.46432)"
       inkscape:label="MUXCHARGE"
       style="display:none"
       inkscape:highlight-color="#a9cf72">
      <rect
         style="display:inline;fill:#000000;stroke:#ffffff;stroke-width:0.564999;stroke-linecap:square;stroke-miterlimit:5;paint-order:fill markers stroke"
         id="rect14220"
         width="89.316673"
         height="85.334427"
         x="40.008327"
         y="20.832781"
         transform="matrix(0.25238793,0,0,0.25238793,71.812519,29.305126)" />
      <g
         id="g14226"
         transform="translate(0,3.1040406)"
         style="fill:#ffffff">
        <path
           d="m 97.421096,35.012132 h -8.007615 c -0.173037,0 -0.313266,0.139965 -0.313266,0.313267 v 1.436158 h -0.995892 c -0.173038,0 -0.208756,0.03678 -0.208756,0.209285 v 1.478492 c 0,0.173038 0.03572,0.209285 0.208756,0.209285 h 0.995892 v 1.436688 c 0,0.173037 0.140229,0.313267 0.313266,0.313267 h 8.007615 c 0.173037,0 0.313266,-0.139965 0.313266,-0.313267 v -4.769644 c 0,-0.173566 -0.140229,-0.313531 -0.313266,-0.313531 z"
           id="path3335"
           style="fill:#ffffff;stroke-width:0.264583" />
        <path
           d="m 101.99865,36.278692 c -0.0299,-0.432593 -0.32279,-0.626268 -0.59954,-0.626268 -0.32782,0 -0.62151,0.254264 -0.68289,0.591608 -0.0225,0.12409 -0.13917,0.638704 -0.28655,1.290902 -0.29051,1.2827 -0.729453,3.221038 -0.914662,4.226719 -0.246062,1.337468 -1.998927,2.580216 -3.15886,3.402277 l -0.126206,0.08996 c -1.41658,1.005681 -1.611577,2.457186 -1.611577,3.875617 0,0.173037 0.140229,0.313796 0.313531,0.313796 h 2.802466 c 0.173038,0 0.313532,-0.140494 0.313532,-0.313796 0,-1.493573 0.930539,-2.421996 2.218526,-3.707871 l 0.1614,-0.161131 c 1.15861,-1.158611 1.57136,-2.286265 1.57136,-2.954867 0,-0.118798 0.002,-0.439208 0.004,-0.873919 0.008,-1.658143 0.0238,-4.744773 -0.004,-5.153025 z"
           id="path3337"
           style="fill:#ffffff;stroke-width:0.264583" />
        <path
           d="m 84.363908,36.278692 c 0.0299,-0.432593 0.322528,-0.626268 0.599546,-0.626268 0.328084,0 0.621507,0.254264 0.68289,0.591608 0.02249,0.12409 0.138906,0.638704 0.286544,1.290902 0.290512,1.2827 0.729456,3.221038 0.9144,4.226719 0.246062,1.337468 1.998927,2.580216 3.15886,3.402277 l 0.126471,0.08996 c 1.416314,1.005681 1.611577,2.457186 1.611577,3.875617 0,0.173037 -0.140229,0.313796 -0.313267,0.313796 h -2.802731 c -0.173038,0 -0.313267,-0.140494 -0.313267,-0.313796 0,-1.493573 -0.930804,-2.421996 -2.218796,-3.707871 L 85.93474,45.260503 c -1.158611,-1.158611 -1.571361,-2.286265 -1.571361,-2.954867 0,-0.118798 -0.0016,-0.439208 -0.0037,-0.873919 -0.0085,-1.658143 -0.02381,-4.744773 0.0042,-5.153025 z"
           id="path3339"
           style="fill:#ffffff;stroke-width:0.264583" />
      </g>
    </g>
    <g
       id="g14235"
       transform="translate(1.4305115e-6,-16.352878)"
       style="display:none"
       inkscape:label="MUXSTART">
      <rect
         style="display:inline;fill:#000000;stroke:#ffffff;stroke-width:0.564999;stroke-linecap:square;stroke-miterlimit:5;paint-order:fill markers stroke"
         id="rect14231"
         width="89.316673"
         height="85.334427"
         x="40.008327"
         y="20.832781" />
      <path
         fill="#010101"
         d="m 1194.133,323.098 c -1.816,0 -3.289,1.472 -3.289,3.289 0,1.817 1.473,3.289 3.289,3.289 1.818,0 3.289,-1.472 3.289,-3.289 0,-1.817 -1.471,-3.289 -3.289,-3.289 z m 10.777,-31.464 c 0.01,0 0.014,10e-4 0.02,10e-4 0.01,0 0.016,-10e-4 0.021,-10e-4 z m 10.819,31.464 c -1.816,0 -3.289,1.472 -3.289,3.289 0,1.817 1.473,3.289 3.289,3.289 1.816,0 3.289,-1.472 3.289,-3.289 0,-1.817 -1.473,-3.289 -3.289,-3.289 z m -10.799,-31.463 c -15.844,0.011 -30.225,12.993 -30.225,34.322 0,25.026 8.264,28.316 30.227,28.316 21.961,0 30.225,-3.29 30.225,-28.316 -10e-4,-21.329 -14.382,-34.311 -30.227,-34.322 z m 22.383,39.041 c 0,3.791 -3.074,6.865 -6.865,6.865 h -31.033 c -3.791,0 -6.865,-3.074 -6.865,-6.865 v -7.007 c 0,-3.791 3.074,-6.865 6.865,-6.865 h 31.033 c 3.791,0 6.865,3.074 6.865,6.865 z"
         id="path14233"
         style="display:inline;fill:#ffffff"
         transform="matrix(1.1579435,0,0,1.1579435,-1310.5754,-310.46191)" />
    </g>
    <g
       id="g10700"
       transform="matrix(1.2881042,0,0,1.2881042,13.836393,7.0230714)"
       style="display:none;fill:#000000;stroke:#000000;stroke-width:2.13543;stroke-dasharray:none;stroke-opacity:1"
       inkscape:label="SHUTDOWN"
       inkscape:highlight-color="#cfbb72">
      <rect
         style="display:inline;fill:#000000;stroke:#ffffff;stroke-width:0.564999;stroke-linecap:square;stroke-miterlimit:5;stroke-dasharray:none;stroke-opacity:1;paint-order:fill markers stroke"
         id="rect14237"
         width="89.316673"
         height="85.334427"
         x="40.008327"
         y="20.832781"
         transform="matrix(0.77633472,0,0,0.77633472,-10.741672,-5.4522541)" />
      <g
         id="g10698"
         style="fill:#ffffff;stroke:#ffffff;stroke-width:2.13543;stroke-dasharray:none;stroke-opacity:1">
        <path
           d="m 67.429,24.782 c -0.25,-0.134 -0.559,-0.042 -0.694,0.206 l -1.955,3.598 c -0.064,0.119 -0.08,0.259 -0.041,0.39 0.039,0.13 0.127,0.239 0.247,0.304 6.777,3.681 10.987,10.752 10.987,18.455 0,11.572 -9.414,20.986 -20.985,20.986 -11.571,0 -20.986,-9.414 -20.986,-20.986 0,-7.702 4.209,-14.773 10.985,-18.454 0.249,-0.135 0.34,-0.446 0.205,-0.694 l -1.954,-3.598 c -0.065,-0.12 -0.174,-0.208 -0.304,-0.247 -0.131,-0.039 -0.27,-0.024 -0.39,0.041 -8.425,4.577 -13.66,13.372 -13.66,22.951 0,14.394 11.71,26.104 26.104,26.104 14.393,0 26.104,-11.71 26.104,-26.104 -0.001,-9.58 -5.236,-18.375 -13.663,-22.952 z"
           id="path10694"
           style="fill:#ffffff;stroke:#ffffff;stroke-width:2.13543;stroke-dasharray:none;stroke-opacity:1" />
        <path
           d="m 52.94,46.609 h 4.094 c 0.283,0 0.512,-0.229 0.512,-0.512 V 14.364 c 0,-0.283 -0.229,-0.512 -0.512,-0.512 H 52.94 c -0.283,0 -0.512,0.229 -0.512,0.512 v 31.733 c 0,0.284 0.229,0.512 0.512,0.512 z"
           id="path10696"
           style="fill:#ffffff;stroke:#ffffff;stroke-width:2.13543;stroke-dasharray:none;stroke-opacity:1" />
      </g>
    </g>
    <g
       id="g14309"
       transform="matrix(0.97914493,0,0,0.97914493,-103.51754,-76.969606)"
       inkscape:label="REBOOT"
       inkscape:highlight-color="#cf7273"
       style="display:none">
      <rect
         style="display:inline;fill:#000000;stroke:#ffffff;stroke-width:0.564999;stroke-linecap:square;stroke-miterlimit:5;paint-order:fill markers stroke"
         id="rect14243"
         width="89.316673"
         height="85.334427"
         x="40.008327"
         y="20.832781"
         transform="matrix(1.0212993,0,0,1.0212993,105.72239,78.609002)" />
      <g
         id="g6022"
         transform="translate(-1.2766241e-6)">
        <g
           id="g3252"
           transform="translate(-1.2766241e-6)">
          <path
             fill="#010101"
             d="m 173.247,143.462 c 0,-1.465 0.17,-2.891 0.49,-4.259 l 8.393,4.443 c 0.108,0.057 0.227,0.085 0.345,0.085 0.143,0 0.284,-0.041 0.408,-0.123 0.225,-0.148 0.351,-0.41 0.327,-0.678 l -2.278,-26.282 c -0.021,-0.252 -0.166,-0.471 -0.389,-0.589 -0.222,-0.117 -0.486,-0.114 -0.706,0.009 l -23.014,12.895 c -0.237,0.132 -0.38,0.381 -0.376,0.652 0.003,0.27 0.153,0.516 0.391,0.644 l 7.9,4.181 c -0.941,2.837 -1.455,5.869 -1.455,9.021 0,14.851 11.301,27.062 25.771,28.505 l 0.577,-9.965 c -9.232,-1.134 -16.384,-8.999 -16.384,-18.539 z"
             id="path3248"
             style="fill:#ffffff" />
          <path
             fill="#010101"
             d="m 227.518,155.262 -8.055,-3.856 c 0.727,-2.523 1.119,-5.188 1.119,-7.944 0,-14.852 -11.3,-27.062 -25.771,-28.505 l -0.577,9.965 c 9.233,1.134 16.385,9 16.385,18.54 0,1.213 -0.124,2.396 -0.346,3.545 l -8.566,-4.101 c -0.244,-0.118 -0.532,-0.091 -0.751,0.068 -0.219,0.158 -0.333,0.421 -0.3,0.691 l 3.336,26.169 c 0.032,0.248 0.187,0.463 0.413,0.572 0.101,0.048 0.209,0.072 0.317,0.072 0.135,0 0.269,-0.037 0.388,-0.109 l 22.476,-13.813 c 0.23,-0.142 0.364,-0.397 0.351,-0.667 -0.015,-0.271 -0.175,-0.511 -0.419,-0.627 z"
             id="path3250"
             style="fill:#ffffff" />
        </g>
      </g>
    </g>
    <g
       inkscape:groupmode="layer"
       id="layer2"
       inkscape:label="BOOT"
       style="display:inline">
      <rect
         style="display:inline;fill:#000000;stroke:#ffffff;stroke-width:0.564999;stroke-linecap:square;stroke-miterlimit:5;paint-order:fill markers stroke"
         id="rect14200"
         width="89.316673"
         height="85.334427"
         x="40.008327"
         y="20.832781" />
      <path
         fill="#010101"
         d="m 72.163145,63.667319 c -2.102825,0 -3.808476,1.704493 -3.808476,3.808476 0,2.103983 1.705651,3.808476 3.808476,3.808476 2.105142,0 3.808477,-1.704493 3.808477,-3.808476 0,-2.103983 -1.703335,-3.808476 -3.808477,-3.808476 z M 84.642303,27.233785 c 0.01158,0 0.01621,0.0012 0.02316,0.0012 0.01158,0 0.01853,-0.0012 0.02432,-0.0012 z m 12.52779,36.433534 c -2.102825,0 -3.808476,1.704493 -3.808476,3.808476 0,2.103983 1.705651,3.808476 3.808476,3.808476 2.102826,0 3.808477,-1.704493 3.808477,-3.808476 0,-2.103983 -1.705651,-3.808476 -3.808477,-3.808476 z M 84.665461,27.234943 c -18.346456,0.01274 -34.998842,15.04516 -34.998842,39.742936 0,28.978694 9.569245,32.788329 35.001158,32.788329 25.429593,0 34.998843,-3.809635 34.998843,-32.788329 -10e-4,-24.697776 -16.65354,-39.730199 -35.001159,-39.742936 z m 25.918249,45.207272 c 0,4.389764 -3.55952,7.949282 -7.94928,7.949282 H 66.699968 c -4.389764,0 -7.949282,-3.559518 -7.949282,-7.949282 v -8.11371 c 0,-4.389764 3.559518,-7.949282 7.949282,-7.949282 h 35.934462 c 4.38976,0 7.94928,3.559518 7.94928,7.949282 z"
         id="path5735"
         style="display:inline;fill:#ffffff;stroke:#000000;stroke-width:1.15794" />
    </g>
  </g>
</svg>
