<?xml version="1.0" encoding="UTF-8" standalone="no"?>
<!-- Created with Inkscape (http://www.inkscape.org/) -->

<svg
   width="393.414"
   height="393.414"
   viewBox="0 0 104.09079 104.09079"
   version="1.1"
   id="svg14753"
   xml:space="preserve"
   inkscape:version="1.2.2 (b0a8486541, 2022-12-01)"
   sodipodi:docname="HEADER.svg"
   inkscape:export-filename="20.png"
   inkscape:export-xdpi="96"
   inkscape:export-ydpi="96"
   xmlns:inkscape="http://www.inkscape.org/namespaces/inkscape"
   xmlns:sodipodi="http://sodipodi.sourceforge.net/DTD/sodipodi-0.dtd"
   xmlns="http://www.w3.org/2000/svg"
   xmlns:svg="http://www.w3.org/2000/svg"><sodipodi:namedview
     id="namedview14755"
     pagecolor="#505050"
     bordercolor="#eeeeee"
     borderopacity="1"
     inkscape:showpageshadow="0"
     inkscape:pageopacity="0"
     inkscape:pagecheckerboard="0"
     inkscape:deskcolor="#d1d1d1"
     inkscape:document-units="mm"
     showgrid="false"
     inkscape:zoom="1.4503086"
     inkscape:cx="49.299851"
     inkscape:cy="104.11577"
     inkscape:window-width="2560"
     inkscape:window-height="1367"
     inkscape:window-x="2560"
     inkscape:window-y="36"
     inkscape:window-maximized="1"
     inkscape:current-layer="g19548" /><defs
     id="defs14750" /><g
     inkscape:groupmode="layer"
     id="layer5"
     inkscape:label="20"
     style="display:inline"><g
       id="g19383"
       transform="translate(-55.79178,-212.76151)"><rect
         style="fill:#000000;stroke:#ffffff;stroke-width:1.25206;stroke-linecap:square;stroke-miterlimit:5;stroke-dasharray:none;paint-order:fill markers stroke"
         id="rect16921"
         width="46.985378"
         height="92.090355"
         x="-288.29959"
         y="67.166176"
         ry="2.3367712"
         transform="rotate(-90)" /><path
         id="path16923"
         style="fill:#ffffff;stroke:#ffffff;stroke-width:1.25206;stroke-linecap:square;stroke-miterlimit:5;stroke-dasharray:none;paint-order:fill markers stroke"
         d="m 56.417817,273.07384 c 0,1.18916 1.042355,2.14664 2.336927,2.14664 h 1.614589 v 0.003 h 6.286178 v -20.83335 h -6.286178 v 0.003 h -1.614589 c -1.294572,0 -2.336927,0.95748 -2.336927,2.14664 z" /><rect
         style="fill:#ff0000;stroke:#ff0000;stroke-width:0.55291;stroke-linecap:square;stroke-miterlimit:5;paint-order:fill markers stroke"
         id="rect16935"
         width="40.043728"
         height="15.499689"
         x="-284.82877"
         y="140.7001"
         ry="1.9774317"
         transform="rotate(-90)" /></g></g><g
     inkscape:groupmode="layer"
     id="g19360"
     inkscape:label="C20"
     style="display:none"><g
       id="g19378"
       transform="translate(-55.79178,-212.76151)"><rect
         style="fill:#000000;stroke:#ffffff;stroke-width:1.25206;stroke-linecap:square;stroke-miterlimit:5;stroke-dasharray:none;paint-order:fill markers stroke"
         id="rect19354"
         width="46.985378"
         height="92.090355"
         x="-288.29959"
         y="67.166176"
         ry="2.3367712"
         transform="rotate(-90)" /><path
         id="path19356"
         style="fill:#ffffff;stroke:#ffffff;stroke-width:1.25206;stroke-linecap:square;stroke-miterlimit:5;stroke-dasharray:none;paint-order:fill markers stroke"
         d="m 56.417817,273.07384 c 0,1.18916 1.042355,2.14664 2.336927,2.14664 h 1.614589 v 0.003 h 6.286178 v -20.83335 h -6.286178 v 0.003 h -1.614589 c -1.294572,0 -2.336927,0.95748 -2.336927,2.14664 z" /><rect
         style="fill:#ff0000;stroke:#ff0000;stroke-width:0.55291;stroke-linecap:square;stroke-miterlimit:5;paint-order:fill markers stroke"
         id="rect19358"
         width="40.043728"
         height="15.499689"
         x="-284.82877"
         y="140.7001"
         ry="1.9774317"
         transform="rotate(-90)" /><path
         d="m 71.592438,264.14709 v -0.13696 l 0.18026,-0.42233 h 32.283792 v -15.44387 c 0.004,-1.32227 2.27352,-2.14242 4.07377,-1.47247 l 46.0914,17.1218 c 1.08126,0.4107 0.64748,1.46099 -0.61288,1.48389 l -29.94047,0.46799 v 15.71781 c 0.004,1.33122 -2.2877,2.15582 -4.09181,1.47247 -5.24544,-1.99754 -17.14231,-6.54052 -27.723322,-10.59268 -18.53028,-7.09984 -20.26074,-7.7733 -20.26074,-8.19563 z m 80.087612,0 -44.45106,-16.50541 c -0.59876,-0.21892 -1.34775,0.053 -1.35192,0.49083 l 14.65479,33.82125 -44.937742,-17.22453 c 6.84971,2.68242 26.533642,10.27308 44.937742,17.22453 0.27782,0.10443 0.62346,0.10443 0.90128,0 0.28567,-0.10148 0.45914,-0.29487 0.45064,-0.50226 l -14.65479,-33.80982 z"
         id="path18822"
         style="fill:#00ff00;stroke:#00ff00;stroke-width:1.43441"
         sodipodi:nodetypes="scccccccccccscccccccccc" /></g></g><g
     inkscape:groupmode="layer"
     id="layer6"
     inkscape:label="40"
     style="display:none"><g
       id="g19629"
       transform="translate(-53.254771,-154.71337)"><rect
         style="display:inline;fill:#000000;stroke:#ffffff;stroke-width:1.25206;stroke-linecap:square;stroke-miterlimit:5;stroke-dasharray:none;paint-order:fill markers stroke"
         id="rect16903"
         width="46.985378"
         height="92.090355"
         x="-230.25145"
         y="64.629166"
         ry="2.3367712"
         transform="rotate(-90)" /><path
         id="path16905"
         style="fill:#ffffff;stroke:#ffffff;stroke-width:1.25206;stroke-linecap:square;stroke-miterlimit:5;stroke-dasharray:none;paint-order:fill markers stroke"
         d="m 53.88081,215.02569 c 0,1.18916 1.042355,2.14664 2.336927,2.14664 h 1.614589 v 0.003 h 6.286178 v -20.83335 h -6.286178 v 0.003 h -1.614589 c -1.294572,0 -2.336927,0.95748 -2.336927,2.14664 z" /><rect
         style="fill:#ffffff;stroke:#000000;stroke-width:0.55291;stroke-linecap:square;stroke-miterlimit:5;paint-order:fill markers stroke"
         id="rect16915"
         width="40.043728"
         height="15.499689"
         x="-226.78062"
         y="120.60136"
         ry="1.9774317"
         transform="rotate(-90)" /><rect
         style="fill:#ffffff;stroke:#000000;stroke-width:0.55291;stroke-linecap:square;stroke-miterlimit:5;paint-order:fill markers stroke"
         id="rect16917"
         width="40.043728"
         height="15.499689"
         x="-226.78062"
         y="138.1631"
         ry="1.9774317"
         transform="rotate(-90)" /></g></g><g
     inkscape:groupmode="layer"
     id="g19407"
     inkscape:label="C40"
     style="display:none"><g
       id="g19623"
       transform="translate(-53.254771,-154.71337)"><rect
         style="display:inline;fill:#000000;stroke:#ffffff;stroke-width:1.25206;stroke-linecap:square;stroke-miterlimit:5;stroke-dasharray:none;paint-order:fill markers stroke"
         id="rect19397"
         width="46.985378"
         height="92.090355"
         x="-230.25145"
         y="64.629166"
         ry="2.3367712"
         transform="rotate(-90)" /><path
         id="path19399"
         style="fill:#ffffff;stroke:#ffffff;stroke-width:1.25206;stroke-linecap:square;stroke-miterlimit:5;stroke-dasharray:none;paint-order:fill markers stroke"
         d="m 53.88081,215.02569 c 0,1.18916 1.042355,2.14664 2.336927,2.14664 h 1.614589 v 0.003 h 6.286178 v -20.83335 h -6.286178 v 0.003 h -1.614589 c -1.294572,0 -2.336927,0.95748 -2.336927,2.14664 z" /><rect
         style="fill:#ffffff;stroke:#ffffff;stroke-width:0.55291;stroke-linecap:square;stroke-miterlimit:5;paint-order:fill markers stroke"
         id="rect19401"
         width="40.043728"
         height="15.499689"
         x="-226.78062"
         y="120.60136"
         ry="1.9774317"
         transform="rotate(-90)" /><rect
         style="fill:#ffffff;stroke:#ffffff;stroke-width:0.55291;stroke-linecap:square;stroke-miterlimit:5;paint-order:fill markers stroke"
         id="rect19403"
         width="40.043728"
         height="15.499689"
         x="-226.78062"
         y="138.1631"
         ry="1.9774317"
         transform="rotate(-90)" /><path
         d="m 69.055426,206.09895 v -0.13696 l 0.18026,-0.42233 h 32.283794 v -15.44387 c 0.004,-1.32227 2.27352,-2.14242 4.07377,-1.47247 l 46.0914,17.1218 c 1.08126,0.4107 0.64748,1.46099 -0.61288,1.48389 L 121.1313,207.697 v 15.71781 c 0.004,1.33122 -2.2877,2.15582 -4.09181,1.47247 -5.24544,-1.99754 -17.14231,-6.54052 -27.723324,-10.59268 -18.53028,-7.09984 -20.26074,-7.7733 -20.26074,-8.19563 z m 80.087614,0 -44.45106,-16.50541 c -0.59876,-0.21892 -1.34775,0.053 -1.35192,0.49083 l 14.65479,33.82125 -44.937744,-17.22453 c 6.84971,2.68242 26.533644,10.27308 44.937744,17.22453 0.27782,0.10443 0.62346,0.10443 0.90128,0 0.28567,-0.10148 0.45914,-0.29487 0.45064,-0.50226 l -14.65479,-33.80982 z"
         id="path19405"
         style="display:inline;fill:#00ff00;stroke:#00ff00;stroke-width:1.43441"
         sodipodi:nodetypes="scccccccccccscccccccccc" /></g></g><g
     inkscape:groupmode="layer"
     id="layer7"
     inkscape:label="60"
     style="display:none"><g
       id="g19426"
       transform="translate(-55.79178,-95.492663)"><rect
         style="fill:#000000;stroke:#ffffff;stroke-width:1.25206;stroke-linecap:square;stroke-miterlimit:5;stroke-dasharray:none;paint-order:fill markers stroke"
         id="rect16885"
         width="46.985378"
         height="92.090355"
         x="-171.03075"
         y="67.166176"
         ry="2.3367712"
         transform="rotate(-90)" /><path
         id="path16887"
         style="fill:#ffffff;stroke:#ffffff;stroke-width:1.25206;stroke-linecap:square;stroke-miterlimit:5;stroke-dasharray:none;paint-order:fill markers stroke"
         d="m 56.417817,155.805 c 0,1.18916 1.042355,2.14664 2.336927,2.14664 h 1.614589 v 0.003 h 6.286178 v -20.83335 h -6.286178 v 0.003 h -1.614589 c -1.294572,0 -2.336927,0.95748 -2.336927,2.14664 z" /><rect
         style="fill:#ffffff;stroke:#ffffff;stroke-width:0.55291;stroke-linecap:square;stroke-miterlimit:5;paint-order:fill markers stroke"
         id="rect16895"
         width="40.043728"
         height="15.499689"
         x="-167.55994"
         y="105.57662"
         ry="1.9774317"
         transform="rotate(-90)" /><rect
         style="fill:#ffffff;stroke:#ffffff;stroke-width:0.55291;stroke-linecap:square;stroke-miterlimit:5;paint-order:fill markers stroke"
         id="rect16897"
         width="40.043728"
         height="15.499689"
         x="-167.55994"
         y="123.13837"
         ry="1.9774317"
         transform="rotate(-90)" /><rect
         style="fill:#ffffff;stroke:#ffffff;stroke-width:0.55291;stroke-linecap:square;stroke-miterlimit:5;paint-order:fill markers stroke"
         id="rect16899"
         width="40.043728"
         height="15.499689"
         x="-167.55994"
         y="140.7001"
         ry="1.9774317"
         transform="rotate(-90)" /></g></g><g
     inkscape:groupmode="layer"
     id="g19419"
     inkscape:label="C60"
     style="display:none"><g
       id="g19616"
       transform="translate(-55.79178,-95.492663)"><rect
         style="fill:#000000;stroke:#ffffff;stroke-width:1.25206;stroke-linecap:square;stroke-miterlimit:5;stroke-dasharray:none;paint-order:fill markers stroke"
         id="rect19409"
         width="46.985378"
         height="92.090355"
         x="-171.03075"
         y="67.166176"
         ry="2.3367712"
         transform="rotate(-90)" /><path
         id="path19411"
         style="fill:#ffffff;stroke:#ffffff;stroke-width:1.25206;stroke-linecap:square;stroke-miterlimit:5;stroke-dasharray:none;paint-order:fill markers stroke"
         d="m 56.417817,155.805 c 0,1.18916 1.042355,2.14664 2.336927,2.14664 h 1.614589 v 0.003 h 6.286178 v -20.83335 h -6.286178 v 0.003 h -1.614589 c -1.294572,0 -2.336927,0.95748 -2.336927,2.14664 z" /><rect
         style="fill:#ffffff;stroke:#ffffff;stroke-width:0.55291;stroke-linecap:square;stroke-miterlimit:5;paint-order:fill markers stroke"
         id="rect19413"
         width="40.043728"
         height="15.499689"
         x="-167.55994"
         y="105.57662"
         ry="1.9774317"
         transform="rotate(-90)" /><rect
         style="fill:#ffffff;stroke:#ffffff;stroke-width:0.55291;stroke-linecap:square;stroke-miterlimit:5;paint-order:fill markers stroke"
         id="rect19415"
         width="40.043728"
         height="15.499689"
         x="-167.55994"
         y="123.13837"
         ry="1.9774317"
         transform="rotate(-90)" /><rect
         style="fill:#ffffff;stroke:#ffffff;stroke-width:0.55291;stroke-linecap:square;stroke-miterlimit:5;paint-order:fill markers stroke"
         id="rect19417"
         width="40.043728"
         height="15.499689"
         x="-167.55994"
         y="140.7001"
         ry="1.9774317"
         transform="rotate(-90)" /><path
         d="m 71.592438,146.87824 v -0.13696 l 0.18026,-0.42233 h 32.283792 v -15.44387 c 0.004,-1.32227 2.27352,-2.14242 4.07377,-1.47247 l 46.0914,17.1218 c 1.08126,0.4107 0.64748,1.46099 -0.61288,1.48389 l -29.94047,0.46799 v 15.71781 c 0.004,1.33122 -2.2877,2.15582 -4.09181,1.47247 -5.24544,-1.99754 -17.14231,-6.54052 -27.723322,-10.59268 -18.53028,-7.09984 -20.26074,-7.7733 -20.26074,-8.19563 z m 80.087612,0 -44.45106,-16.50541 c -0.59876,-0.21892 -1.34775,0.053 -1.35192,0.49083 l 14.65479,33.82125 -44.937742,-17.22453 c 6.84971,2.68242 26.533642,10.27308 44.937742,17.22453 0.27782,0.10443 0.62346,0.10443 0.90128,0 0.28567,-0.10148 0.45914,-0.29487 0.45064,-0.50226 l -14.65479,-33.80982 z"
         id="path19405-1"
         style="display:inline;fill:#00ff00;stroke:#00ff00;stroke-width:1.43441"
         sodipodi:nodetypes="scccccccccccscccccccccc" /></g></g><g
     inkscape:groupmode="layer"
     id="layer8"
     inkscape:label="80"
     style="display:none"><g
       id="g19608"
       transform="translate(-55.79178,-37.580249)"><rect
         style="fill:#000000;stroke:#ffffff;stroke-width:1.25206;stroke-linecap:square;stroke-miterlimit:5;stroke-dasharray:none;paint-order:fill markers stroke"
         id="rect16939"
         width="46.985378"
         height="92.090355"
         x="-113.11833"
         y="67.166176"
         ry="2.3367712"
         transform="rotate(-90)" /><path
         id="path16941"
         style="fill:#ffffff;stroke:#ffffff;stroke-width:1.25206;stroke-linecap:square;stroke-miterlimit:5;stroke-dasharray:none;paint-order:fill markers stroke"
         d="m 56.417817,97.892582 c 0,1.189158 1.042355,2.146638 2.336927,2.146638 h 1.614589 v 0.003 h 6.286178 V 79.208968 h -6.286178 v 0.0031 h -1.614589 c -1.294572,0 -2.336927,0.95748 -2.336927,2.146639 z" /><rect
         style="fill:#ffffff;stroke:#ffffff;stroke-width:0.55291;stroke-linecap:square;stroke-miterlimit:5;paint-order:fill markers stroke"
         id="rect16947"
         width="40.043728"
         height="15.499689"
         x="-109.64751"
         y="88.01487"
         ry="1.9774317"
         transform="rotate(-90)" /><rect
         style="fill:#ffffff;stroke:#ffffff;stroke-width:0.55291;stroke-linecap:square;stroke-miterlimit:5;paint-order:fill markers stroke"
         id="rect16949"
         width="40.043728"
         height="15.499689"
         x="-109.64751"
         y="105.57662"
         ry="1.9774317"
         transform="rotate(-90)" /><rect
         style="fill:#ffffff;stroke:#ffffff;stroke-width:0.55291;stroke-linecap:square;stroke-miterlimit:5;paint-order:fill markers stroke"
         id="rect16951"
         width="40.043728"
         height="15.499689"
         x="-109.64751"
         y="123.13837"
         ry="1.9774317"
         transform="rotate(-90)" /><rect
         style="fill:#ffffff;stroke:#ffffff;stroke-width:0.55291;stroke-linecap:square;stroke-miterlimit:5;paint-order:fill markers stroke"
         id="rect16953"
         width="40.043728"
         height="15.499689"
         x="-109.64751"
         y="140.7001"
         ry="1.9774317"
         transform="rotate(-90)" /></g></g><g
     inkscape:groupmode="layer"
     id="g19485"
     inkscape:label="C80"
     style="display:none"><g
       id="g19600"
       transform="translate(-55.79178,-37.580249)"><rect
         style="fill:#000000;stroke:#ffffff;stroke-width:1.25206;stroke-linecap:square;stroke-miterlimit:5;stroke-dasharray:none;paint-order:fill markers stroke"
         id="rect19473"
         width="46.985378"
         height="92.090355"
         x="-113.11833"
         y="67.166176"
         ry="2.3367712"
         transform="rotate(-90)" /><path
         id="path19475"
         style="fill:#ffffff;stroke:#ffffff;stroke-width:1.25206;stroke-linecap:square;stroke-miterlimit:5;stroke-dasharray:none;paint-order:fill markers stroke"
         d="m 56.417817,97.892582 c 0,1.189158 1.042355,2.146638 2.336927,2.146638 h 1.614589 v 0.003 h 6.286178 V 79.208968 h -6.286178 v 0.0031 h -1.614589 c -1.294572,0 -2.336927,0.95748 -2.336927,2.146639 z" /><rect
         style="fill:#ffffff;stroke:#ffffff;stroke-width:0.55291;stroke-linecap:square;stroke-miterlimit:5;paint-order:fill markers stroke"
         id="rect19477"
         width="40.043728"
         height="15.499689"
         x="-109.64751"
         y="88.01487"
         ry="1.9774317"
         transform="rotate(-90)" /><rect
         style="fill:#ffffff;stroke:#ffffff;stroke-width:0.55291;stroke-linecap:square;stroke-miterlimit:5;paint-order:fill markers stroke"
         id="rect19479"
         width="40.043728"
         height="15.499689"
         x="-109.64751"
         y="105.57662"
         ry="1.9774317"
         transform="rotate(-90)" /><rect
         style="fill:#ffffff;stroke:#ffffff;stroke-width:0.55291;stroke-linecap:square;stroke-miterlimit:5;paint-order:fill markers stroke"
         id="rect19481"
         width="40.043728"
         height="15.499689"
         x="-109.64751"
         y="123.13837"
         ry="1.9774317"
         transform="rotate(-90)" /><rect
         style="fill:#ffffff;stroke:#ffffff;stroke-width:0.55291;stroke-linecap:square;stroke-miterlimit:5;paint-order:fill markers stroke"
         id="rect19483"
         width="40.043728"
         height="15.499689"
         x="-109.64751"
         y="140.7001"
         ry="1.9774317"
         transform="rotate(-90)" /><path
         d="m 71.592437,88.965829 v -0.13696 l 0.18026,-0.42233 h 32.283793 v -15.44387 c 0.004,-1.32227 2.27352,-2.14242 4.07377,-1.47247 l 46.0914,17.1218 c 1.08126,0.4107 0.64748,1.46099 -0.61288,1.48389 l -29.94047,0.46799 v 15.717811 c 0.004,1.33122 -2.2877,2.15582 -4.09181,1.47247 -5.24544,-1.99754 -17.14231,-6.54052 -27.723323,-10.592681 -18.53028,-7.09984 -20.26074,-7.7733 -20.26074,-8.19563 z m 80.087613,0 -44.45106,-16.50541 c -0.59876,-0.21892 -1.34775,0.053 -1.35192,0.49083 L 120.53186,106.7725 75.594117,89.547969 c 6.84971,2.68242 26.533643,10.27308 44.937743,17.224531 0.27782,0.10443 0.62346,0.10443 0.90128,0 0.28567,-0.10148 0.45914,-0.29487 0.45064,-0.50226 L 107.22899,72.460419 Z"
         id="path19525"
         style="display:inline;fill:#00ff00;stroke:#00ff00;stroke-width:1.43441"
         sodipodi:nodetypes="scccccccccccscccccccccc" /></g></g><g
     inkscape:groupmode="layer"
     id="layer9"
     inkscape:label="100"
     style="display:none"><g
       id="g19591"
       transform="translate(-52.954607,19.154336)"><rect
         style="fill:#000000;stroke:#ffffff;stroke-width:1.25206;stroke-linecap:square;stroke-miterlimit:5;stroke-dasharray:none;paint-order:fill markers stroke"
         id="rect14886"
         width="46.985378"
         height="92.090355"
         x="-56.383747"
         y="64.329002"
         ry="2.3367712"
         transform="rotate(-90)" /><path
         id="rect15265"
         style="fill:#ffffff;stroke:#ffffff;stroke-width:1.25206;stroke-linecap:square;stroke-miterlimit:5;stroke-dasharray:none;paint-order:fill markers stroke"
         d="m 53.580645,41.157995 c 0,1.189158 1.042355,2.146639 2.336927,2.146639 h 1.614589 v 0.0031 h 6.286178 V 22.474381 h -6.286178 v 0.0031 h -1.614589 c -1.294572,0 -2.336927,0.95748 -2.336927,2.146639 z" /><rect
         style="fill:#ffffff;stroke:#ffffff;stroke-width:0.55291;stroke-linecap:square;stroke-miterlimit:5;paint-order:fill markers stroke"
         id="rect14892"
         width="40.043728"
         height="15.499689"
         x="-52.912926"
         y="67.615944"
         ry="1.9774317"
         transform="rotate(-90)" /><rect
         style="fill:#ffffff;stroke:#ffffff;stroke-width:0.55291;stroke-linecap:square;stroke-miterlimit:5;paint-order:fill markers stroke"
         id="rect16867"
         width="40.043728"
         height="15.499689"
         x="-52.912922"
         y="85.177696"
         ry="1.9774317"
         transform="rotate(-90)" /><rect
         style="fill:#ffffff;stroke:#ffffff;stroke-width:0.55291;stroke-linecap:square;stroke-miterlimit:5;paint-order:fill markers stroke"
         id="rect16869"
         width="40.043728"
         height="15.499689"
         x="-52.912922"
         y="102.73945"
         ry="1.9774317"
         transform="rotate(-90)" /><rect
         style="fill:#ffffff;stroke:#ffffff;stroke-width:0.55291;stroke-linecap:square;stroke-miterlimit:5;paint-order:fill markers stroke"
         id="rect16871"
         width="40.043728"
         height="15.499689"
         x="-52.912922"
         y="120.30119"
         ry="1.9774317"
         transform="rotate(-90)" /><rect
         style="fill:#ffffff;stroke:#ffffff;stroke-width:0.55291;stroke-linecap:square;stroke-miterlimit:5;paint-order:fill markers stroke"
         id="rect16873"
         width="40.043728"
         height="15.499689"
         x="-52.912922"
         y="137.86293"
         ry="1.9774317"
         transform="rotate(-90)" /></g></g><g
     inkscape:groupmode="layer"
     id="g19548"
     inkscape:label="C100"
     style="display:none"><g
       id="g19582"
       transform="translate(-52.954607,19.154336)"
       style="display:inline"><rect
         style="fill:#000000;stroke:#ffffff;stroke-width:1.25206;stroke-linecap:square;stroke-miterlimit:5;stroke-dasharray:none;paint-order:fill markers stroke"
         id="rect19534"
         width="46.985378"
         height="92.090355"
         x="-56.383747"
         y="64.329002"
         ry="2.3367712"
         transform="rotate(-90)" /><path
         id="path19536"
         style="fill:#ffffff;stroke:#ffffff;stroke-width:1.25206;stroke-linecap:square;stroke-miterlimit:5;stroke-dasharray:none;paint-order:fill markers stroke"
         d="m 53.580645,41.157995 c 0,1.189158 1.042355,2.146639 2.336927,2.146639 h 1.614589 v 0.0031 h 6.286178 V 22.474381 h -6.286178 v 0.0031 h -1.614589 c -1.294572,0 -2.336927,0.95748 -2.336927,2.146639 z" /><rect
         style="fill:#ffffff;stroke:#ffffff;stroke-width:0.55291;stroke-linecap:square;stroke-miterlimit:5;paint-order:fill markers stroke"
         id="rect19538"
         width="40.043728"
         height="15.499689"
         x="-52.912926"
         y="67.615944"
         ry="1.9774317"
         transform="rotate(-90)" /><rect
         style="fill:#ffffff;stroke:#ffffff;stroke-width:0.55291;stroke-linecap:square;stroke-miterlimit:5;paint-order:fill markers stroke"
         id="rect19540"
         width="40.043728"
         height="15.499689"
         x="-52.912922"
         y="85.177696"
         ry="1.9774317"
         transform="rotate(-90)" /><rect
         style="fill:#ffffff;stroke:#ffffff;stroke-width:0.55291;stroke-linecap:square;stroke-miterlimit:5;paint-order:fill markers stroke"
         id="rect19542"
         width="40.043728"
         height="15.499689"
         x="-52.912922"
         y="102.73945"
         ry="1.9774317"
         transform="rotate(-90)" /><rect
         style="fill:#ffffff;stroke:#ffffff;stroke-width:0.55291;stroke-linecap:square;stroke-miterlimit:5;paint-order:fill markers stroke"
         id="rect19544"
         width="40.043728"
         height="15.499689"
         x="-52.912922"
         y="120.30119"
         ry="1.9774317"
         transform="rotate(-90)" /><rect
         style="fill:#ffffff;stroke:#ffffff;stroke-width:0.55291;stroke-linecap:square;stroke-miterlimit:5;paint-order:fill markers stroke"
         id="rect19546"
         width="40.043728"
         height="15.499689"
         x="-52.912922"
         y="137.86293"
         ry="1.9774317"
         transform="rotate(-90)" /><path
         d="m 68.755263,32.231243 v -0.13696 l 0.18026,-0.42233 h 32.283797 v -15.44387 c 0.004,-1.32227 2.27352,-2.14242 4.07377,-1.47247 l 46.0914,17.1218 c 1.08126,0.4107 0.64748,1.46099 -0.61288,1.48389 l -29.94047,0.46799 v 15.717811 c 0.004,1.33122 -2.2877,2.15582 -4.09181,1.47247 -5.24544,-1.99754 -17.142314,-6.54052 -27.723327,-10.592681 -18.53028,-7.09984 -20.26074,-7.7733 -20.26074,-8.19563 z m 80.087617,0 -44.45106,-16.50541 c -0.59876,-0.21892 -1.34775,0.053 -1.35192,0.49083 L 117.69469,50.037914 72.756943,32.813383 c 6.84971,2.68242 26.533643,10.27308 44.937747,17.224531 0.27782,0.10443 0.62346,0.10443 0.90128,0 0.28567,-0.10148 0.45914,-0.29487 0.45064,-0.50226 L 104.39182,15.725833 Z"
         id="path19571"
         style="display:inline;fill:#00ff00;stroke:#00ff00;stroke-width:1.43441"
         sodipodi:nodetypes="scccccccccccscccccccccc" /></g></g></svg>
