<?xml version="1.0" encoding="UTF-8" standalone="no"?>
<!-- Created with Inkscape (http://www.inkscape.org/) -->

<svg
   width="393.414"
   height="393.414"
   viewBox="0 0 104.09079 104.09079"
   version="1.1"
   id="svg14753"
   xml:space="preserve"
   inkscape:version="1.2.2 (b0a8486541, 2022-12-01)"
   sodipodi:docname="HEADER.svg"
   inkscape:export-filename="20.png"
   inkscape:export-xdpi="96"
   inkscape:export-ydpi="96"
   xmlns:inkscape="http://www.inkscape.org/namespaces/inkscape"
   xmlns:sodipodi="http://sodipodi.sourceforge.net/DTD/sodipodi-0.dtd"
   xmlns="http://www.w3.org/2000/svg"
   xmlns:svg="http://www.w3.org/2000/svg"><sodipodi:namedview
     id="namedview14755"
     pagecolor="#505050"
     bordercolor="#eeeeee"
     borderopacity="1"
     inkscape:showpageshadow="0"
     inkscape:pageopacity="0"
     inkscape:pagecheckerboard="0"
     inkscape:deskcolor="#d1d1d1"
     inkscape:document-units="mm"
     showgrid="false"
     inkscape:zoom="1.4503086"
     inkscape:cx="30.683125"
     inkscape:cy="324.75847"
     inkscape:window-width="2560"
     inkscape:window-height="1367"
     inkscape:window-x="2560"
     inkscape:window-y="36"
     inkscape:window-maximized="1"
     inkscape:current-layer="layer5" /><defs
     id="defs14750" /><g
     inkscape:groupmode="layer"
     id="layer5"
     inkscape:label="20"
     style="display:inline"><rect
       style="display:inline;fill:#000000;fill-opacity:1;stroke:none;stroke-width:3;stroke-linecap:round;stroke-linejoin:round;stroke-miterlimit:5;paint-order:fill markers stroke"
       id="rect990"
       width="104.09079"
       height="104.09079"
       x="0"
       y="0"
       ry="2.3367712" /><g
       id="g19383"
       transform="translate(-55.79178,-212.76151)"><rect
         style="fill:#000000;stroke:#ffffff;stroke-width:3.49533;stroke-linecap:square;stroke-miterlimit:5;stroke-dasharray:none;paint-order:fill markers stroke"
         id="rect16921"
         width="47.003658"
         height="90.977867"
         x="-288.30872"
         y="67.157036"
         ry="2.308542"
         transform="rotate(-90)" /><path
         id="path16923"
         style="fill:#ffffff;stroke:#ffffff;stroke-width:1.25206;stroke-linecap:square;stroke-miterlimit:5;stroke-dasharray:none;paint-order:fill markers stroke"
         d="m 56.417817,273.07384 c 0,1.18916 1.042355,2.14664 2.336927,2.14664 h 1.614589 v 0.003 h 6.286178 v -20.83335 h -6.286178 v 0.003 h -1.614589 c -1.294572,0 -2.336927,0.95748 -2.336927,2.14664 z" /><rect
         style="fill:#ff0000;stroke:#ff0000;stroke-width:0.55291;stroke-linecap:square;stroke-miterlimit:5;paint-order:fill markers stroke"
         id="rect16935"
         width="40.043728"
         height="15.499689"
         x="-284.82877"
         y="140.7001"
         ry="1.9774317"
         transform="rotate(-90)" /></g></g><g
     inkscape:groupmode="layer"
     id="g19360"
     inkscape:label="C20"
     style="display:inline"><rect
       style="display:inline;fill:#000000;fill-opacity:1;stroke:none;stroke-width:3;stroke-linecap:round;stroke-linejoin:round;stroke-miterlimit:5;paint-order:fill markers stroke"
       id="rect988"
       width="104.09079"
       height="104.09079"
       x="0"
       y="0"
       ry="2.3367712" /><g
       id="g19378"
       transform="translate(-55.79178,-212.76151)"><rect
         style="fill:#000000;stroke:#ffffff;stroke-width:3.48;stroke-linecap:square;stroke-miterlimit:5;stroke-dasharray:none;paint-order:fill markers stroke"
         id="rect19354"
         width="47.005665"
         height="90.986679"
         x="-288.30972"
         y="67.156036"
         ry="2.3087656"
         transform="rotate(-90)" /><path
         id="path19356"
         style="fill:#ffffff;stroke:#ffffff;stroke-width:1.25206;stroke-linecap:square;stroke-miterlimit:5;stroke-dasharray:none;paint-order:fill markers stroke"
         d="m 56.417817,273.07384 c 0,1.18916 1.042355,2.14664 2.336927,2.14664 h 1.614589 v 0.003 h 6.286178 v -20.83335 h -6.286178 v 0.003 h -1.614589 c -1.294572,0 -2.336927,0.95748 -2.336927,2.14664 z" /><rect
         style="fill:#ff0000;stroke:#ff0000;stroke-width:0.55291;stroke-linecap:square;stroke-miterlimit:5;paint-order:fill markers stroke"
         id="rect19358"
         width="40.043728"
         height="15.499689"
         x="-284.82877"
         y="140.7001"
         ry="1.9774317"
         transform="rotate(-90)" /><path
         d="m 141.46875,233.52458 0.10373,0.0893 0.20218,0.4123 -21.08279,24.44913 11.69623,10.08521 c 0.99885,0.86646 0.13782,3.1209 -1.54519,4.04676 l -43.066172,23.72508 c -1.017116,0.55072 -1.529285,-0.46371 -0.723562,-1.43317 L 106.251,271.91883 94.347334,261.65475 c -1.010847,-0.86622 -0.138676,-3.14037 1.556955,-4.06038 4.938261,-2.66803 16.147891,-8.71111 26.126511,-14.07815 17.47786,-9.397 19.11793,-10.26772 19.43776,-9.99194 z m -52.30052,60.65216 41.52819,-22.88524 c 0.5568,-0.31052 0.84,-1.0553 0.51115,-1.34439 L 96.023761,258.959 138.41439,236.1748 c -6.5046,3.43572 -25.10756,13.38587 -42.390629,22.7842 -0.260561,0.14212 -0.486466,0.40369 -0.588589,0.68258 -0.109649,0.28261 -0.07653,0.54026 0.0862,0.66924 l 35.175141,10.98065 z"
         id="path18822"
         style="display:inline;fill:#008000;stroke:#008000;stroke-width:1.43441"
         sodipodi:nodetypes="scccccccccccscccccccccc" /></g></g><g
     inkscape:groupmode="layer"
     id="layer6"
     inkscape:label="40"
     style="display:inline"><rect
       style="display:inline;fill:#000000;fill-opacity:1;stroke:none;stroke-width:3;stroke-linecap:round;stroke-linejoin:round;stroke-miterlimit:5;paint-order:fill markers stroke"
       id="rect986"
       width="104.09079"
       height="104.09079"
       x="0"
       y="0"
       ry="2.3367712" /><g
       id="g19629"
       transform="translate(-53.254771,-154.71337)"><rect
         style="display:inline;fill:#000000;stroke:#ffffff;stroke-width:3.47971;stroke-linecap:square;stroke-miterlimit:5;stroke-dasharray:none;paint-order:fill markers stroke"
         id="rect16903"
         width="47.005665"
         height="90.986679"
         x="-230.2616"
         y="64.619026"
         ry="2.3087656"
         transform="rotate(-90)" /><path
         id="path16905"
         style="fill:#ffffff;stroke:#ffffff;stroke-width:1.25206;stroke-linecap:square;stroke-miterlimit:5;stroke-dasharray:none;paint-order:fill markers stroke"
         d="m 53.88081,215.02569 c 0,1.18916 1.042355,2.14664 2.336927,2.14664 h 1.614589 v 0.003 h 6.286178 v -20.83335 h -6.286178 v 0.003 h -1.614589 c -1.294572,0 -2.336927,0.95748 -2.336927,2.14664 z" /><rect
         style="fill:#ffffff;stroke:#ffffff;stroke-width:0.55291;stroke-linecap:square;stroke-miterlimit:5;paint-order:fill markers stroke"
         id="rect16915"
         width="40.043728"
         height="15.499689"
         x="-226.78062"
         y="120.60136"
         ry="1.9774317"
         transform="rotate(-90)" /><rect
         style="fill:#ffffff;stroke:#ffffff;stroke-width:0.55291;stroke-linecap:square;stroke-miterlimit:5;paint-order:fill markers stroke"
         id="rect16917"
         width="40.043728"
         height="15.499689"
         x="-226.78062"
         y="138.1631"
         ry="1.9774317"
         transform="rotate(-90)" /></g></g><g
     inkscape:groupmode="layer"
     id="g19407"
     inkscape:label="C40"
     style="display:inline"><rect
       style="display:inline;fill:#000000;fill-opacity:1;stroke:none;stroke-width:3;stroke-linecap:round;stroke-linejoin:round;stroke-miterlimit:5;paint-order:fill markers stroke"
       id="rect984"
       width="104.09079"
       height="104.09079"
       x="0"
       y="0"
       ry="2.3367712" /><g
       id="g19623"
       transform="translate(-53.254771,-154.71337)"><rect
         style="display:inline;fill:#000000;stroke:#ffffff;stroke-width:3.47971;stroke-linecap:square;stroke-miterlimit:5;stroke-dasharray:none;paint-order:fill markers stroke"
         id="rect19397"
         width="47.005665"
         height="90.986679"
         x="-230.2616"
         y="64.619026"
         ry="2.3087656"
         transform="rotate(-90)" /><path
         id="path19399"
         style="fill:#ffffff;stroke:#ffffff;stroke-width:1.25206;stroke-linecap:square;stroke-miterlimit:5;stroke-dasharray:none;paint-order:fill markers stroke"
         d="m 53.88081,215.02569 c 0,1.18916 1.042355,2.14664 2.336927,2.14664 h 1.614589 v 0.003 h 6.286178 v -20.83335 h -6.286178 v 0.003 h -1.614589 c -1.294572,0 -2.336927,0.95748 -2.336927,2.14664 z" /><rect
         style="fill:#ffffff;stroke:#ffffff;stroke-width:0.55291;stroke-linecap:square;stroke-miterlimit:5;paint-order:fill markers stroke"
         id="rect19401"
         width="40.043728"
         height="15.499689"
         x="-226.78062"
         y="120.60136"
         ry="1.9774317"
         transform="rotate(-90)" /><rect
         style="fill:#ffffff;stroke:#ffffff;stroke-width:0.55291;stroke-linecap:square;stroke-miterlimit:5;paint-order:fill markers stroke"
         id="rect19403"
         width="40.043728"
         height="15.499689"
         x="-226.78062"
         y="138.1631"
         ry="1.9774317"
         transform="rotate(-90)" /><path
         d="m 138.03722,174.68258 0.10493,0.088 0.20765,0.40956 -20.75162,24.73082 11.83069,9.92713 c 1.01034,0.85301 0.17979,3.11875 -1.4906,4.06717 l -42.743038,24.30239 c -1.009648,0.56426 -1.535378,-0.44311 -0.742807,-1.4233 L 103.33928,213.54782 91.298748,203.44461 c -1.022351,-0.85262 -0.18095,-3.13821 1.502181,-4.08099 4.901908,-2.73425 16.029191,-8.92761 25.934681,-14.42846 17.34982,-9.63133 18.97804,-10.52404 19.30157,-10.25258 z m -51.479318,61.35067 41.216468,-23.44202 c 0.55259,-0.31792 0.82571,-1.06649 0.493,-1.35113 l -35.328501,-10.51365 42.080181,-23.3526 c -6.45776,3.52296 -24.92513,13.72255 -42.080181,23.3526 -0.25858,0.1457 -0.480749,0.41047 -0.579334,0.69042 -0.105889,0.28407 -0.06924,0.54126 0.09509,0.66806 l 35.319745,10.5063 z"
         id="path19405"
         style="display:inline;fill:#008000;stroke:#008000;stroke-width:1.43441"
         sodipodi:nodetypes="scccccccccccscccccccccc" /></g></g><g
     inkscape:groupmode="layer"
     id="layer7"
     inkscape:label="60"
     style="display:inline"><rect
       style="display:inline;fill:#000000;fill-opacity:1;stroke:none;stroke-width:3;stroke-linecap:round;stroke-linejoin:round;stroke-miterlimit:5;paint-order:fill markers stroke"
       id="rect982"
       width="104.09079"
       height="104.09079"
       x="0"
       y="0"
       ry="2.3367712" /><g
       id="g19426"
       transform="translate(-55.79178,-95.492663)"><rect
         style="fill:#000000;stroke:#ffffff;stroke-width:3.47971;stroke-linecap:square;stroke-miterlimit:5;stroke-dasharray:none;paint-order:fill markers stroke"
         id="rect16885"
         width="47.005665"
         height="90.986679"
         x="-171.04089"
         y="67.156036"
         ry="2.3087656"
         transform="rotate(-90)" /><path
         id="path16887"
         style="fill:#ffffff;stroke:#ffffff;stroke-width:1.25206;stroke-linecap:square;stroke-miterlimit:5;stroke-dasharray:none;paint-order:fill markers stroke"
         d="m 56.417817,155.805 c 0,1.18916 1.042355,2.14664 2.336927,2.14664 h 1.614589 v 0.003 h 6.286178 v -20.83335 h -6.286178 v 0.003 h -1.614589 c -1.294572,0 -2.336927,0.95748 -2.336927,2.14664 z" /><rect
         style="fill:#ffffff;stroke:#ffffff;stroke-width:0.55291;stroke-linecap:square;stroke-miterlimit:5;paint-order:fill markers stroke"
         id="rect16895"
         width="40.043728"
         height="15.499689"
         x="-167.55994"
         y="105.57662"
         ry="1.9774317"
         transform="rotate(-90)" /><rect
         style="fill:#ffffff;stroke:#ffffff;stroke-width:0.55291;stroke-linecap:square;stroke-miterlimit:5;paint-order:fill markers stroke"
         id="rect16897"
         width="40.043728"
         height="15.499689"
         x="-167.55994"
         y="123.13837"
         ry="1.9774317"
         transform="rotate(-90)" /><rect
         style="fill:#ffffff;stroke:#ffffff;stroke-width:0.55291;stroke-linecap:square;stroke-miterlimit:5;paint-order:fill markers stroke"
         id="rect16899"
         width="40.043728"
         height="15.499689"
         x="-167.55994"
         y="140.7001"
         ry="1.9774317"
         transform="rotate(-90)" /></g></g><g
     inkscape:groupmode="layer"
     id="g19419"
     inkscape:label="C60"
     style="display:inline"><rect
       style="display:inline;fill:#000000;fill-opacity:1;stroke:none;stroke-width:3;stroke-linecap:round;stroke-linejoin:round;stroke-miterlimit:5;paint-order:fill markers stroke"
       id="rect980"
       width="104.09079"
       height="104.09079"
       x="0"
       y="0"
       ry="2.3367712" /><g
       id="g19616"
       transform="translate(-55.79178,-95.492663)"><rect
         style="fill:#000000;stroke:#ffffff;stroke-width:3.47971;stroke-linecap:square;stroke-miterlimit:5;stroke-dasharray:none;paint-order:fill markers stroke"
         id="rect19409"
         width="47.005665"
         height="90.986679"
         x="-171.04089"
         y="67.156036"
         ry="2.3087656"
         transform="rotate(-90)" /><path
         id="path19411"
         style="fill:#ffffff;stroke:#ffffff;stroke-width:1.25206;stroke-linecap:square;stroke-miterlimit:5;stroke-dasharray:none;paint-order:fill markers stroke"
         d="m 56.417817,155.805 c 0,1.18916 1.042355,2.14664 2.336927,2.14664 h 1.614589 v 0.003 h 6.286178 v -20.83335 h -6.286178 v 0.003 h -1.614589 c -1.294572,0 -2.336927,0.95748 -2.336927,2.14664 z" /><rect
         style="fill:#ffffff;stroke:#ffffff;stroke-width:0.55291;stroke-linecap:square;stroke-miterlimit:5;paint-order:fill markers stroke"
         id="rect19413"
         width="40.043728"
         height="15.499689"
         x="-167.55994"
         y="105.57662"
         ry="1.9774317"
         transform="rotate(-90)" /><rect
         style="fill:#ffffff;stroke:#ffffff;stroke-width:0.55291;stroke-linecap:square;stroke-miterlimit:5;paint-order:fill markers stroke"
         id="rect19415"
         width="40.043728"
         height="15.499689"
         x="-167.55994"
         y="123.13837"
         ry="1.9774317"
         transform="rotate(-90)" /><rect
         style="fill:#ffffff;stroke:#ffffff;stroke-width:0.55291;stroke-linecap:square;stroke-miterlimit:5;paint-order:fill markers stroke"
         id="rect19417"
         width="40.043728"
         height="15.499689"
         x="-167.55994"
         y="140.7001"
         ry="1.9774317"
         transform="rotate(-90)" /><path
         d="m 140.57423,115.46187 0.10494,0.088 0.20764,0.40956 -20.75162,24.73083 11.83069,9.92712 c 1.01035,0.85301 0.17979,3.11875 -1.49059,4.06718 l -42.743047,24.30238 c -1.009649,0.56426 -1.535378,-0.44311 -0.742807,-1.4233 L 105.87629,154.32711 93.835758,144.2239 c -1.022349,-0.85262 -0.18095,-3.13821 1.502182,-4.08099 4.90191,-2.73425 16.0292,-8.92761 25.93468,-14.42846 17.34982,-9.63132 18.97804,-10.52404 19.30156,-10.25257 z m -51.479318,61.35067 41.216468,-23.44202 c 0.55259,-0.31792 0.82571,-1.06649 0.493,-1.35112 L 95.475878,141.50573 137.55606,118.15314 c -6.45776,3.52296 -24.92513,13.72255 -42.080182,23.35259 -0.258559,0.14573 -0.48075,0.41048 -0.579333,0.69043 -0.105881,0.28406 -0.06924,0.54126 0.09509,0.66805 l 35.319745,10.50631 z"
         id="path19405-1"
         style="display:inline;fill:#008000;stroke:#008000;stroke-width:1.43441"
         sodipodi:nodetypes="scccccccccccscccccccccc" /></g></g><g
     inkscape:groupmode="layer"
     id="layer8"
     inkscape:label="80"
     style="display:inline"><rect
       style="display:inline;fill:#000000;fill-opacity:1;stroke:none;stroke-width:3;stroke-linecap:round;stroke-linejoin:round;stroke-miterlimit:5;paint-order:fill markers stroke"
       id="rect978"
       width="104.09079"
       height="104.09079"
       x="0"
       y="0"
       ry="2.3367712" /><g
       id="g19608"
       transform="translate(-55.79178,-37.580249)"><rect
         style="fill:#000000;stroke:#ffffff;stroke-width:3.47971;stroke-linecap:square;stroke-miterlimit:5;stroke-dasharray:none;paint-order:fill markers stroke"
         id="rect16939"
         width="47.005665"
         height="90.986679"
         x="-113.12847"
         y="67.156036"
         ry="2.3087656"
         transform="rotate(-90)" /><path
         id="path16941"
         style="fill:#ffffff;stroke:#ffffff;stroke-width:1.25206;stroke-linecap:square;stroke-miterlimit:5;stroke-dasharray:none;paint-order:fill markers stroke"
         d="m 56.417817,97.892582 c 0,1.189158 1.042355,2.146638 2.336927,2.146638 h 1.614589 v 0.003 h 6.286178 V 79.208968 h -6.286178 v 0.0031 h -1.614589 c -1.294572,0 -2.336927,0.95748 -2.336927,2.146639 z" /><rect
         style="fill:#ffffff;stroke:#ffffff;stroke-width:0.55291;stroke-linecap:square;stroke-miterlimit:5;paint-order:fill markers stroke"
         id="rect16947"
         width="40.043728"
         height="15.499689"
         x="-109.64751"
         y="88.01487"
         ry="1.9774317"
         transform="rotate(-90)" /><rect
         style="fill:#ffffff;stroke:#ffffff;stroke-width:0.55291;stroke-linecap:square;stroke-miterlimit:5;paint-order:fill markers stroke"
         id="rect16949"
         width="40.043728"
         height="15.499689"
         x="-109.64751"
         y="105.57662"
         ry="1.9774317"
         transform="rotate(-90)" /><rect
         style="fill:#ffffff;stroke:#ffffff;stroke-width:0.55291;stroke-linecap:square;stroke-miterlimit:5;paint-order:fill markers stroke"
         id="rect16951"
         width="40.043728"
         height="15.499689"
         x="-109.64751"
         y="123.13837"
         ry="1.9774317"
         transform="rotate(-90)" /><rect
         style="fill:#ffffff;stroke:#ffffff;stroke-width:0.55291;stroke-linecap:square;stroke-miterlimit:5;paint-order:fill markers stroke"
         id="rect16953"
         width="40.043728"
         height="15.499689"
         x="-109.64751"
         y="140.7001"
         ry="1.9774317"
         transform="rotate(-90)" /></g></g><g
     inkscape:groupmode="layer"
     id="g19485"
     inkscape:label="C80"
     style="display:inline"><rect
       style="display:inline;fill:#000000;fill-opacity:1;stroke:none;stroke-width:3;stroke-linecap:round;stroke-linejoin:round;stroke-miterlimit:5;paint-order:fill markers stroke"
       id="rect976"
       width="104.09079"
       height="104.09079"
       x="0"
       y="0"
       ry="2.3367712" /><g
       id="g19600"
       transform="translate(-55.79178,-37.580249)"><rect
         style="fill:#000000;stroke:#ffffff;stroke-width:3.47971;stroke-linecap:square;stroke-miterlimit:5;stroke-dasharray:none;paint-order:fill markers stroke"
         id="rect19473"
         width="47.005665"
         height="90.986679"
         x="-113.12847"
         y="67.156036"
         ry="2.3087656"
         transform="rotate(-90)" /><path
         id="path19475"
         style="fill:#ffffff;stroke:#ffffff;stroke-width:1.25206;stroke-linecap:square;stroke-miterlimit:5;stroke-dasharray:none;paint-order:fill markers stroke"
         d="m 56.417817,97.892582 c 0,1.189158 1.042355,2.146638 2.336927,2.146638 h 1.614589 v 0.003 h 6.286178 V 79.208968 h -6.286178 v 0.0031 h -1.614589 c -1.294572,0 -2.336927,0.95748 -2.336927,2.146639 z" /><rect
         style="fill:#ffffff;stroke:#ffffff;stroke-width:0.55291;stroke-linecap:square;stroke-miterlimit:5;paint-order:fill markers stroke"
         id="rect19477"
         width="40.043728"
         height="15.499689"
         x="-109.64751"
         y="88.01487"
         ry="1.9774317"
         transform="rotate(-90)" /><rect
         style="fill:#ffffff;stroke:#ffffff;stroke-width:0.55291;stroke-linecap:square;stroke-miterlimit:5;paint-order:fill markers stroke"
         id="rect19479"
         width="40.043728"
         height="15.499689"
         x="-109.64751"
         y="105.57662"
         ry="1.9774317"
         transform="rotate(-90)" /><rect
         style="fill:#ffffff;stroke:#ffffff;stroke-width:0.55291;stroke-linecap:square;stroke-miterlimit:5;paint-order:fill markers stroke"
         id="rect19481"
         width="40.043728"
         height="15.499689"
         x="-109.64751"
         y="123.13837"
         ry="1.9774317"
         transform="rotate(-90)" /><rect
         style="fill:#ffffff;stroke:#ffffff;stroke-width:0.55291;stroke-linecap:square;stroke-miterlimit:5;paint-order:fill markers stroke"
         id="rect19483"
         width="40.043728"
         height="15.499689"
         x="-109.64751"
         y="140.7001"
         ry="1.9774317"
         transform="rotate(-90)" /><path
         d="m 140.57424,57.549464 0.10491,0.08804 0.20765,0.409557 -20.75162,24.730824 11.83069,9.92712 c 1.01035,0.853008 0.1798,3.118744 -1.49059,4.067183 L 87.732238,121.07456 c -1.009648,0.56426 -1.535378,-0.44311 -0.742807,-1.4233 L 105.87629,96.414705 93.835754,86.311493 c -1.02235,-0.85262 -0.18095,-3.138213 1.502181,-4.080991 C 100.23989,79.496236 111.36717,73.302875 121.27265,67.802028 138.62248,58.1707 140.2507,57.277982 140.57422,57.549451 Z M 89.094913,118.90013 130.31138,95.458115 c 0.55259,-0.317923 0.82572,-1.066496 0.493,-1.351122 L 95.475879,83.593325 137.55606,60.240736 c -6.45776,3.522956 -24.92513,13.72254 -42.080181,23.352589 -0.258559,0.145725 -0.48075,0.410472 -0.579333,0.690424 -0.105881,0.284062 -0.06924,0.541264 0.09509,0.668054 l 35.319744,10.506312 z"
         id="path19525"
         style="display:inline;fill:#008000;stroke:#008000;stroke-width:1.43441"
         sodipodi:nodetypes="scccccccccccscccccccccc" /></g></g><g
     inkscape:groupmode="layer"
     id="layer9"
     inkscape:label="100"
     style="display:inline"><rect
       style="display:inline;fill:#000000;fill-opacity:1;stroke:none;stroke-width:3;stroke-linecap:round;stroke-linejoin:round;stroke-miterlimit:5;paint-order:fill markers stroke"
       id="rect974"
       width="104.09079"
       height="104.09079"
       x="0"
       y="0"
       ry="2.3367712" /><g
       id="g19591"
       transform="translate(-52.954607,19.154336)"><rect
         style="fill:#000000;stroke:#ffffff;stroke-width:3.47971;stroke-linecap:square;stroke-miterlimit:5;stroke-dasharray:none;paint-order:fill markers stroke"
         id="rect14886"
         width="47.005665"
         height="90.986679"
         x="-56.39389"
         y="64.318863"
         ry="2.3087656"
         transform="rotate(-90)" /><path
         id="rect15265"
         style="fill:#ffffff;stroke:#ffffff;stroke-width:1.25206;stroke-linecap:square;stroke-miterlimit:5;stroke-dasharray:none;paint-order:fill markers stroke"
         d="m 53.580645,41.157995 c 0,1.189158 1.042355,2.146639 2.336927,2.146639 h 1.614589 v 0.0031 h 6.286178 V 22.474381 h -6.286178 v 0.0031 h -1.614589 c -1.294572,0 -2.336927,0.95748 -2.336927,2.146639 z" /><rect
         style="fill:#ffffff;stroke:#ffffff;stroke-width:0.55291;stroke-linecap:square;stroke-miterlimit:5;paint-order:fill markers stroke"
         id="rect14892"
         width="40.043728"
         height="15.499689"
         x="-52.912926"
         y="67.615944"
         ry="1.9774317"
         transform="rotate(-90)" /><rect
         style="fill:#ffffff;stroke:#ffffff;stroke-width:0.55291;stroke-linecap:square;stroke-miterlimit:5;paint-order:fill markers stroke"
         id="rect16867"
         width="40.043728"
         height="15.499689"
         x="-52.912922"
         y="85.177696"
         ry="1.9774317"
         transform="rotate(-90)" /><rect
         style="fill:#ffffff;stroke:#ffffff;stroke-width:0.55291;stroke-linecap:square;stroke-miterlimit:5;paint-order:fill markers stroke"
         id="rect16869"
         width="40.043728"
         height="15.499689"
         x="-52.912922"
         y="102.73945"
         ry="1.9774317"
         transform="rotate(-90)" /><rect
         style="fill:#ffffff;stroke:#ffffff;stroke-width:0.55291;stroke-linecap:square;stroke-miterlimit:5;paint-order:fill markers stroke"
         id="rect16871"
         width="40.043728"
         height="15.499689"
         x="-52.912922"
         y="120.30119"
         ry="1.9774317"
         transform="rotate(-90)" /><rect
         style="fill:#ffffff;stroke:#ffffff;stroke-width:0.55291;stroke-linecap:square;stroke-miterlimit:5;paint-order:fill markers stroke"
         id="rect16873"
         width="40.043728"
         height="15.499689"
         x="-52.912922"
         y="137.86293"
         ry="1.9774317"
         transform="rotate(-90)" /></g></g><g
     inkscape:groupmode="layer"
     id="g19548"
     inkscape:label="C100"
     style="display:inline"><rect
       style="display:inline;fill:#000000;fill-opacity:1;stroke:none;stroke-width:3;stroke-linecap:round;stroke-linejoin:round;stroke-miterlimit:5;paint-order:fill markers stroke"
       id="rect972"
       width="104.09079"
       height="104.09079"
       x="0"
       y="0"
       ry="2.3367712" /><g
       id="g19582"
       transform="translate(-52.954607,19.154336)"
       style="display:inline"><rect
         style="fill:#000000;stroke:#ffffff;stroke-width:3.47971;stroke-linecap:square;stroke-miterlimit:5;stroke-dasharray:none;paint-order:fill markers stroke"
         id="rect19534"
         width="47.005665"
         height="90.986679"
         x="-56.39389"
         y="64.318863"
         ry="2.3087656"
         transform="rotate(-90)" /><path
         id="path19536"
         style="fill:#ffffff;stroke:#ffffff;stroke-width:1.25206;stroke-linecap:square;stroke-miterlimit:5;stroke-dasharray:none;paint-order:fill markers stroke"
         d="m 53.580645,41.157995 c 0,1.189158 1.042355,2.146639 2.336927,2.146639 h 1.614589 v 0.0031 h 6.286178 V 22.474381 h -6.286178 v 0.0031 h -1.614589 c -1.294572,0 -2.336927,0.95748 -2.336927,2.146639 z" /><rect
         style="fill:#ffffff;stroke:#ffffff;stroke-width:0.55291;stroke-linecap:square;stroke-miterlimit:5;paint-order:fill markers stroke"
         id="rect19538"
         width="40.043728"
         height="15.499689"
         x="-52.912926"
         y="67.615944"
         ry="1.9774317"
         transform="rotate(-90)" /><rect
         style="fill:#ffffff;stroke:#ffffff;stroke-width:0.55291;stroke-linecap:square;stroke-miterlimit:5;paint-order:fill markers stroke"
         id="rect19540"
         width="40.043728"
         height="15.499689"
         x="-52.912922"
         y="85.177696"
         ry="1.9774317"
         transform="rotate(-90)" /><rect
         style="fill:#ffffff;stroke:#ffffff;stroke-width:0.55291;stroke-linecap:square;stroke-miterlimit:5;paint-order:fill markers stroke"
         id="rect19542"
         width="40.043728"
         height="15.499689"
         x="-52.912922"
         y="102.73945"
         ry="1.9774317"
         transform="rotate(-90)" /><rect
         style="fill:#ffffff;stroke:#ffffff;stroke-width:0.55291;stroke-linecap:square;stroke-miterlimit:5;paint-order:fill markers stroke"
         id="rect19544"
         width="40.043728"
         height="15.499689"
         x="-52.912922"
         y="120.30119"
         ry="1.9774317"
         transform="rotate(-90)" /><rect
         style="fill:#ffffff;stroke:#ffffff;stroke-width:0.55291;stroke-linecap:square;stroke-miterlimit:5;paint-order:fill markers stroke"
         id="rect19546"
         width="40.043728"
         height="15.499689"
         x="-52.912922"
         y="137.86293"
         ry="1.9774317"
         transform="rotate(-90)" /><path
         d="m 137.73706,0.81486931 0.10491,0.0880362 0.20766,0.40955569 -20.75163,24.7308198 11.83069,9.927128 c 1.01035,0.853009 0.1798,3.118745 -1.49059,4.067174 L 84.895062,64.339966 C 83.885411,64.90423 83.359687,63.896858 84.152291,62.916651 L 103.03915,39.680096 90.998609,29.576885 C 89.976264,28.724257 90.817661,26.43867 92.500797,25.49589 97.402705,22.761644 108.52999,16.568281 118.43547,11.067434 135.7853,1.4361056 137.41352,0.54338804 137.73704,0.81485654 Z M 86.257728,62.165542 127.4742,38.723526 c 0.55259,-0.317923 0.82572,-1.066497 0.493,-1.351131 L 92.638698,26.858738 134.71888,3.5061416 c -6.45776,3.5229556 -24.92513,13.7225414 -42.080182,23.3525964 -0.258575,0.145699 -0.48075,0.410472 -0.579331,0.69042 -0.105887,0.284067 -0.06925,0.541261 0.09509,0.668057 L 127.4742,38.723526 Z"
         id="path19571"
         style="display:inline;fill:#008000;stroke:#008000;stroke-width:1.43441"
         sodipodi:nodetypes="scccccccccccscccccccccc" /></g></g></svg>
